{
  "source": "C:\\Users\\Peter\\Desktop\\stuff\\MIUN\\quantitative_research\\video_compression\\videos\\BVI-HD\\BVI-HD_CDVL_videos\\ORIG\\CarpetCircleFast_1920x1080_60fps.mp4",
  "output": "C:\\Users\\Peter\\Desktop\\stuff\\MIUN\\quantitative_research\\video_compression\\compressed_videos\\BVI-HD\\hevc\\2\\CarpetCircleFast_1920x1080_60fps_hevc.mp4",
  "codec": "hevc",
  "ok": "Input #0, mov,mp4,m4a,3gp,3g2,mj2, from 'C:\\Users\\Peter\\Desktop\\stuff\\MIUN\\quantitative_research\\video_compression\\videos\\BVI-HD\\BVI-HD_CDVL_videos\\ORIG\\CarpetCircleFast_1920x1080_60fps.mp4':\n  Metadata:\n    major_brand     : isom\n    minor_version   : 512\n    compatible_brands: isomiso2avc1mp41\n    encoder         : Lavf54.28.101\n  Duration: 00:00:05.00, start: 0.000000, bitrate: 324759 kb/s\n  Stream #0:0[0x1](und): Video: h264 (High 4:4:4 Predictive) (avc1 / 0x31637661), yuv420p(progressive), 1920x1080, 324754 kb/s, 60 fps, 60 tbr, 60 tbn (default)\n    Metadata:\n      handler_name    : VideoHandler\n      vendor_id       : [0][0][0][0]\n[out#0/mp4 @ 000001fdb866ab40] Codec AVOption b:a (set bitrate (in bits/s)) has not been used for any stream. The most likely reason is either wrong type (e.g. a video option with no video streams) or that it is a private option of some decoder which was not actually used for any stream.\nStream mapping:\n  Stream #0:0 -> #0:0 (h264 (native) -> hevc (libx265))\nPress [q] to stop, [?] for help\n[libx265 @ 000001fdb90dd300] Unknown option: \"aq-mode.\nx265 [info]: HEVC encoder version 4.1+190-8f11c33ac\nx265 [info]: build info [Windows][GCC 15.1.0][64 bit] 10bit\nx265 [info]: using cpu capabilities: MMX2 SSE2Fast LZCNT SSSE3 SSE4.2 AVX FMA3 BMI2 AVX2\nx265 [info]: Main 10 profile, Level-4.1 (Main tier)\nx265 [info]: Thread pool created using 12 threads\nx265 [info]: Slices                              : 1\nx265 [info]: frame threads / pool features       : 3 / wpp(17 rows)\nx265 [info]: Coding QT: max CU size, min CU size : 64 / 8\nx265 [info]: Residual QT: max TU size, max depth : 32 / 1 inter / 1 intra\nx265 [info]: ME / range / subpel / merge         : star / 57 / 3 / 3\nx265 [info]: Keyframe min / max / scenecut / bias  : 25 / 250 / 40 / 5.00 \nx265 [info]: Lookahead / bframes / badapt        : 25 / 4 / 2\nx265 [info]: b-pyramid / weightp / weightb       : 1 / 1 / 0\nx265 [info]: References / ref-limit  cu / depth  : 4 / on / on\nx265 [info]: AQ: mode / str / qg-size / cu-tree  : 2 / 1.0 / 32 / 1\nx265 [info]: Rate Control / qCompress            : ABR-2000 kbps / 0.60\nx265 [info]: VBV/HRD buffer / max-rate / init    : 2000 / 2000 / 0.750\nx265 [info]: tools: rect limit-modes rd=4 psy-rd=2.00 rdoq=2 psy-rdoq=1.00\nx265 [info]: tools: rskip mode=1 signhide tmvp strong-intra-smoothing lslices=4\nx265 [info]: tools: deblock sao dhdr10-info\nOutput #0, mp4, to 'C:\\Users\\Peter\\Desktop\\stuff\\MIUN\\quantitative_research\\video_compression\\compressed_videos\\BVI-HD\\hevc\\2\\CarpetCircleFast_1920x1080_60fps_hevc.mp4':\n  Metadata:\n    major_brand     : isom\n    minor_version   : 512\n    compatible_brands: isomiso2avc1mp41\n    encoder         : Lavf62.3.100\n  Stream #0:0(und): Video: hevc (hev1 / 0x31766568), yuv420p10le(tv, progressive), 1920x1080, q=2-31, 2000 kb/s, 60 fps, 15360 tbn (default)\n    Metadata:\n      encoder         : Lavc62.11.100 libx265\n      handler_name    : VideoHandler\n      vendor_id       : [0][0][0][0]\n    Side data:\n      cpb: bitrate max/min/avg: 2000000/0/2000000 buffer size: 2000000 vbv_delay: N/A\nframe=    0 fps=0.0 q=0.0 size=       0KiB time=N/A bitrate=N/A speed=N/A elapsed=0:00:00.51    \nframe=    0 fps=0.0 q=0.0 size=       0KiB time=N/A bitrate=N/A speed=N/A elapsed=0:00:01.03    \nframe=    0 fps=0.0 q=0.0 size=       0KiB time=N/A bitrate=N/A speed=N/A elapsed=0:00:01.54    \nframe=    0 fps=0.0 q=0.0 size=       0KiB time=N/A bitrate=N/A speed=N/A elapsed=0:00:02.06    \nframe=    0 fps=0.0 q=0.0 size=       0KiB time=N/A bitrate=N/A speed=N/A elapsed=0:00:02.58    \nframe=    0 fps=0.0 q=0.0 size=       0KiB time=N/A bitrate=N/A speed=N/A elapsed=0:00:03.09    \nframe=    0 fps=0.0 q=0.0 size=       0KiB time=N/A bitrate=N/A speed=N/A elapsed=0:00:03.61    \nframe=    2 fps=0.5 q=42.1 size=       0KiB time=00:00:00.00 bitrate=N/A speed=   0x elapsed=0:00:04.13    \nframe=    3 fps=0.6 q=47.5 size=       0KiB time=00:00:00.01 bitrate=  21.1kbits/s speed=0.00359x elapsed=0:00:04.63    \nframe=    3 fps=0.6 q=47.5 size=       0KiB time=00:00:00.01 bitrate=  21.1kbits/s speed=0.00323x elapsed=0:00:05.16    \nframe=    3 fps=0.5 q=47.5 size=       0KiB time=00:00:00.01 bitrate=  21.1kbits/s speed=0.00294x elapsed=0:00:05.67    \nframe=    4 fps=0.6 q=49.0 size=       0KiB time=00:00:00.03 bitrate=  10.6kbits/s speed=0.00539x elapsed=0:00:06.18    \nframe=    6 fps=0.9 q=38.4 size=       0KiB time=00:00:00.06 bitrate=   5.3kbits/s speed=0.00994x elapsed=0:00:06.70    \nframe=    7 fps=1.0 q=37.4 size=       0KiB time=00:00:00.08 bitrate=   4.2kbits/s speed=0.0115x elapsed=0:00:07.22    \nframe=    7 fps=0.9 q=37.4 size=       0KiB time=00:00:00.08 bitrate=   4.2kbits/s speed=0.0108x elapsed=0:00:07.73    \nframe=    7 fps=0.8 q=37.4 size=       0KiB time=00:00:00.08 bitrate=   4.2kbits/s speed=0.0101x elapsed=0:00:08.25    \nframe=    7 fps=0.8 q=37.4 size=       0KiB time=00:00:00.08 bitrate=   4.2kbits/s speed=0.00951x elapsed=0:00:08.76    \nframe=    9 fps=1.0 q=37.9 size=       0KiB time=00:00:00.11 bitrate=   3.0kbits/s speed=0.0126x elapsed=0:00:09.28    \nframe=   10 fps=1.0 q=34.0 size=       0KiB time=00:00:00.13 bitrate=   2.6kbits/s speed=0.0136x elapsed=0:00:09.80    \nframe=   11 fps=1.1 q=38.9 size=       0KiB time=00:00:00.15 bitrate=   2.3kbits/s speed=0.0145x elapsed=0:00:10.32    \nframe=   12 fps=1.1 q=37.9 size=       0KiB time=00:00:00.16 bitrate=   2.1kbits/s speed=0.0154x elapsed=0:00:10.84    \nframe=   13 fps=1.1 q=38.5 size=       0KiB time=00:00:00.18 bitrate=   1.9kbits/s speed=0.0161x elapsed=0:00:11.36    \nframe=   14 fps=1.2 q=39.9 size=       0KiB time=00:00:00.20 bitrate=   1.8kbits/s speed=0.0168x elapsed=0:00:11.87    \nframe=   15 fps=1.2 q=33.1 size=       0KiB time=00:00:00.21 bitrate=   1.6kbits/s speed=0.0175x elapsed=0:00:12.39    \nframe=   16 fps=1.2 q=38.3 size=       0KiB time=00:00:00.23 bitrate=   1.5kbits/s speed=0.0181x elapsed=0:00:12.91    \nframe=   16 fps=1.2 q=38.3 size=       0KiB time=00:00:00.23 bitrate=   1.5kbits/s speed=0.0174x elapsed=0:00:13.42    \nframe=   16 fps=1.1 q=38.3 size=       0KiB time=00:00:00.23 bitrate=   1.5kbits/s speed=0.0167x elapsed=0:00:13.94    \nframe=   18 fps=1.2 q=37.8 size=       0KiB time=00:00:00.26 bitrate=   1.3kbits/s speed=0.0184x elapsed=0:00:14.46    \nframe=   19 fps=1.3 q=31.8 size=       0KiB time=00:00:00.28 bitrate=   1.2kbits/s speed=0.0189x elapsed=0:00:14.97    \nframe=   19 fps=1.2 q=31.8 size=       0KiB time=00:00:00.28 bitrate=   1.2kbits/s speed=0.0183x elapsed=0:00:15.48    \nframe=   20 fps=1.2 q=35.9 size=       0KiB time=00:00:00.30 bitrate=   1.2kbits/s speed=0.0187x elapsed=0:00:16.00    \nframe=   22 fps=1.3 q=31.2 size=       0KiB time=00:00:00.33 bitrate=   1.1kbits/s speed=0.0202x elapsed=0:00:16.51    \nframe=   22 fps=1.3 q=31.2 size=       0KiB time=00:00:00.33 bitrate=   1.1kbits/s speed=0.0196x elapsed=0:00:17.03    \nframe=   22 fps=1.3 q=31.2 size=       0KiB time=00:00:00.33 bitrate=   1.1kbits/s speed=0.019x elapsed=0:00:17.55    \nframe=   22 fps=1.2 q=31.2 size=       0KiB time=00:00:00.33 bitrate=   1.1kbits/s speed=0.0185x elapsed=0:00:18.06    \nframe=   23 fps=1.2 q=35.7 size=       0KiB time=00:00:00.35 bitrate=   1.0kbits/s speed=0.0188x elapsed=0:00:18.58    \nframe=   24 fps=1.3 q=36.2 size=       0KiB time=00:00:00.36 bitrate=   1.0kbits/s speed=0.0192x elapsed=0:00:19.08    \nframe=   26 fps=1.3 q=32.1 size=       0KiB time=00:00:00.40 bitrate=   0.9kbits/s speed=0.0204x elapsed=0:00:19.60    \nframe=   26 fps=1.3 q=32.1 size=       0KiB time=00:00:00.40 bitrate=   0.9kbits/s speed=0.0199x elapsed=0:00:20.12    \nframe=   27 fps=1.3 q=35.6 size=       0KiB time=00:00:00.41 bitrate=   0.8kbits/s speed=0.0202x elapsed=0:00:20.64    \nframe=   28 fps=1.3 q=34.3 size=       0KiB time=00:00:00.43 bitrate=   0.8kbits/s speed=0.0205x elapsed=0:00:21.15    \nframe=   29 fps=1.3 q=30.4 size=       0KiB time=00:00:00.45 bitrate=   0.8kbits/s speed=0.0208x elapsed=0:00:21.67    \nframe=   29 fps=1.3 q=30.4 size=       0KiB time=00:00:00.45 bitrate=   0.8kbits/s speed=0.0203x elapsed=0:00:22.19    \nframe=   31 fps=1.4 q=32.5 size=       0KiB time=00:00:00.48 bitrate=   0.7kbits/s speed=0.0213x elapsed=0:00:22.71    \nframe=   32 fps=1.4 q=30.3 size=       0KiB time=00:00:00.50 bitrate=   0.7kbits/s speed=0.0215x elapsed=0:00:23.23    \nframe=   33 fps=1.4 q=31.3 size=       0KiB time=00:00:00.51 bitrate=   0.7kbits/s speed=0.0217x elapsed=0:00:23.75    \nframe=   33 fps=1.4 q=31.3 size=       0KiB time=00:00:00.51 bitrate=   0.7kbits/s speed=0.0213x elapsed=0:00:24.26    \nframe=   33 fps=1.3 q=31.3 size=       0KiB time=00:00:00.51 bitrate=   0.7kbits/s speed=0.0208x elapsed=0:00:24.78    \nframe=   34 fps=1.3 q=33.6 size=       0KiB time=00:00:00.53 bitrate=   0.7kbits/s speed=0.0211x elapsed=0:00:25.30    \nframe=   35 fps=1.4 q=32.3 size=       0KiB time=00:00:00.55 bitrate=   0.6kbits/s speed=0.0213x elapsed=0:00:25.81    \nframe=   36 fps=1.4 q=29.9 size=       0KiB time=00:00:00.56 bitrate=   0.6kbits/s speed=0.0215x elapsed=0:00:26.33    \nframe=   36 fps=1.3 q=29.9 size=       0KiB time=00:00:00.56 bitrate=   0.6kbits/s speed=0.0211x elapsed=0:00:26.85    \nframe=   36 fps=1.3 q=29.9 size=       0KiB time=00:00:00.56 bitrate=   0.6kbits/s speed=0.0207x elapsed=0:00:27.36    \nframe=   36 fps=1.3 q=29.9 size=       0KiB time=00:00:00.56 bitrate=   0.6kbits/s speed=0.0203x elapsed=0:00:27.88    \nframe=   37 fps=1.3 q=29.4 size=       0KiB time=00:00:00.58 bitrate=   0.6kbits/s speed=0.0205x elapsed=0:00:28.41    \nframe=   37 fps=1.3 q=29.4 size=       0KiB time=00:00:00.58 bitrate=   0.6kbits/s speed=0.0202x elapsed=0:00:28.93    \nframe=   37 fps=1.3 q=29.4 size=       0KiB time=00:00:00.58 bitrate=   0.6kbits/s speed=0.0198x elapsed=0:00:29.47    \nframe=   38 fps=1.3 q=32.4 size=       0KiB time=00:00:00.60 bitrate=   0.6kbits/s speed=0.02x elapsed=0:00:30.00    \nframe=   38 fps=1.2 q=32.4 size=       0KiB time=00:00:00.60 bitrate=   0.6kbits/s speed=0.0196x elapsed=0:00:30.54    \nframe=   39 fps=1.3 q=29.5 size=       0KiB time=00:00:00.61 bitrate=   0.6kbits/s speed=0.0198x elapsed=0:00:31.08    \nframe=   40 fps=1.3 q=30.1 size=       0KiB time=00:00:00.63 bitrate=   0.6kbits/s speed=0.02x elapsed=0:00:31.59    \nframe=   40 fps=1.2 q=30.1 size=       0KiB time=00:00:00.63 bitrate=   0.6kbits/s speed=0.0197x elapsed=0:00:32.11    \nframe=   40 fps=1.2 q=30.1 size=       0KiB time=00:00:00.63 bitrate=   0.6kbits/s speed=0.0194x elapsed=0:00:32.62    \nframe=   40 fps=1.2 q=30.1 size=       0KiB time=00:00:00.63 bitrate=   0.6kbits/s speed=0.0191x elapsed=0:00:33.15    \nframe=   41 fps=1.2 q=32.0 size=       0KiB time=00:00:00.65 bitrate=   0.5kbits/s speed=0.0193x elapsed=0:00:33.69    \nframe=   41 fps=1.2 q=32.0 size=       0KiB time=00:00:00.65 bitrate=   0.5kbits/s speed=0.019x elapsed=0:00:34.20    \nframe=   41 fps=1.2 q=32.0 size=       0KiB time=00:00:00.65 bitrate=   0.5kbits/s speed=0.0187x elapsed=0:00:34.72    \nframe=   41 fps=1.2 q=32.0 size=       0KiB time=00:00:00.65 bitrate=   0.5kbits/s speed=0.0184x elapsed=0:00:35.23    \nframe=   42 fps=1.2 q=32.9 size=       0KiB time=00:00:00.66 bitrate=   0.5kbits/s speed=0.0186x elapsed=0:00:35.78    \nframe=   42 fps=1.2 q=32.9 size=       0KiB time=00:00:00.66 bitrate=   0.5kbits/s speed=0.0184x elapsed=0:00:36.31    \nframe=   43 fps=1.2 q=29.7 size=       0KiB time=00:00:00.68 bitrate=   0.5kbits/s speed=0.0185x elapsed=0:00:36.85    \nframe=   43 fps=1.2 q=29.7 size=       0KiB time=00:00:00.68 bitrate=   0.5kbits/s speed=0.0183x elapsed=0:00:37.38    \nframe=   43 fps=1.1 q=29.7 size=       0KiB time=00:00:00.68 bitrate=   0.5kbits/s speed=0.018x elapsed=0:00:37.89    \nframe=   43 fps=1.1 q=29.7 size=       0KiB time=00:00:00.68 bitrate=   0.5kbits/s speed=0.0178x elapsed=0:00:38.41    \nframe=   43 fps=1.1 q=29.7 size=       0KiB time=00:00:00.68 bitrate=   0.5kbits/s speed=0.0175x elapsed=0:00:38.93    \nframe=   43 fps=1.1 q=29.7 size=       0KiB time=00:00:00.68 bitrate=   0.5kbits/s speed=0.0173x elapsed=0:00:39.46    \nframe=   44 fps=1.1 q=29.3 size=       0KiB time=00:00:00.70 bitrate=   0.5kbits/s speed=0.0175x elapsed=0:00:40.00    \nframe=   44 fps=1.1 q=29.3 size=       0KiB time=00:00:00.70 bitrate=   0.5kbits/s speed=0.0173x elapsed=0:00:40.52    \nframe=   45 fps=1.1 q=34.2 size=       0KiB time=00:00:00.71 bitrate=   0.5kbits/s speed=0.0175x elapsed=0:00:41.05    \nframe=   46 fps=1.1 q=30.0 size=       0KiB time=00:00:00.73 bitrate=   0.5kbits/s speed=0.0176x elapsed=0:00:41.55    \nframe=   46 fps=1.1 q=30.0 size=       0KiB time=00:00:00.73 bitrate=   0.5kbits/s speed=0.0174x elapsed=0:00:42.08    \nframe=   46 fps=1.1 q=30.0 size=       0KiB time=00:00:00.73 bitrate=   0.5kbits/s speed=0.0172x elapsed=0:00:42.60    \nframe=   46 fps=1.1 q=30.0 size=       0KiB time=00:00:00.73 bitrate=   0.5kbits/s speed=0.017x elapsed=0:00:43.14    \nframe=   46 fps=1.1 q=30.0 size=       0KiB time=00:00:00.73 bitrate=   0.5kbits/s speed=0.0168x elapsed=0:00:43.67    \nframe=   46 fps=1.0 q=30.0 size=       0KiB time=00:00:00.73 bitrate=   0.5kbits/s speed=0.0166x elapsed=0:00:44.20    \nframe=   46 fps=1.0 q=30.0 size=       0KiB time=00:00:00.73 bitrate=   0.5kbits/s speed=0.0164x elapsed=0:00:44.75    \nframe=   47 fps=1.0 q=30.0 size=       0KiB time=00:00:00.75 bitrate=   0.5kbits/s speed=0.0166x elapsed=0:00:45.28    \nframe=   47 fps=1.0 q=30.0 size=       0KiB time=00:00:00.75 bitrate=   0.5kbits/s speed=0.0164x elapsed=0:00:45.79    \nframe=   48 fps=1.0 q=33.7 size=       0KiB time=00:00:00.76 bitrate=   0.5kbits/s speed=0.0166x elapsed=0:00:46.32    \nframe=   48 fps=1.0 q=33.7 size=       0KiB time=00:00:00.76 bitrate=   0.5kbits/s speed=0.0164x elapsed=0:00:46.84    \nframe=   48 fps=1.0 q=33.7 size=       0KiB time=00:00:00.76 bitrate=   0.5kbits/s speed=0.0162x elapsed=0:00:47.38    \nframe=   48 fps=1.0 q=33.7 size=       0KiB time=00:00:00.76 bitrate=   0.5kbits/s speed=0.016x elapsed=0:00:47.91    \nframe=   49 fps=1.0 q=30.2 size=       0KiB time=00:00:00.78 bitrate=   0.4kbits/s speed=0.0162x elapsed=0:00:48.43    \nframe=   49 fps=1.0 q=30.2 size=       0KiB time=00:00:00.78 bitrate=   0.4kbits/s speed=0.016x elapsed=0:00:48.95    \nframe=   50 fps=1.0 q=31.1 size=       0KiB time=00:00:00.80 bitrate=   0.4kbits/s speed=0.0162x elapsed=0:00:49.47    \nframe=   50 fps=1.0 q=31.1 size=       0KiB time=00:00:00.80 bitrate=   0.4kbits/s speed=0.016x elapsed=0:00:49.99    \nframe=   50 fps=1.0 q=31.1 size=       0KiB time=00:00:00.80 bitrate=   0.4kbits/s speed=0.0158x elapsed=0:00:50.52    \nframe=   50 fps=1.0 q=31.1 size=       0KiB time=00:00:00.80 bitrate=   0.4kbits/s speed=0.0157x elapsed=0:00:51.04    \nframe=   50 fps=1.0 q=31.1 size=       0KiB time=00:00:00.80 bitrate=   0.4kbits/s speed=0.0155x elapsed=0:00:51.57    \nframe=   50 fps=1.0 q=31.1 size=       0KiB time=00:00:00.80 bitrate=   0.4kbits/s speed=0.0154x elapsed=0:00:52.11    \nframe=   50 fps=0.9 q=31.1 size=       0KiB time=00:00:00.80 bitrate=   0.4kbits/s speed=0.0152x elapsed=0:00:52.68    \nframe=   50 fps=0.9 q=31.1 size=       0KiB time=00:00:00.80 bitrate=   0.4kbits/s speed=0.015x elapsed=0:00:53.21    \nframe=   50 fps=0.9 q=31.1 size=       0KiB time=00:00:00.80 bitrate=   0.4kbits/s speed=0.0149x elapsed=0:00:53.76    \nframe=   50 fps=0.9 q=31.1 size=       0KiB time=00:00:00.80 bitrate=   0.4kbits/s speed=0.0147x elapsed=0:00:54.29    \nframe=   50 fps=0.9 q=31.1 size=       0KiB time=00:00:00.80 bitrate=   0.4kbits/s speed=0.0146x elapsed=0:00:54.81    \nframe=   50 fps=0.9 q=31.1 size=       0KiB time=00:00:00.80 bitrate=   0.4kbits/s speed=0.0145x elapsed=0:00:55.34    \nframe=   50 fps=0.9 q=31.1 size=       0KiB time=00:00:00.80 bitrate=   0.4kbits/s speed=0.0143x elapsed=0:00:55.89    \nframe=   51 fps=0.9 q=36.6 size=       0KiB time=00:00:00.81 bitrate=   0.4kbits/s speed=0.0145x elapsed=0:00:56.42    \nframe=   51 fps=0.9 q=36.6 size=       0KiB time=00:00:00.81 bitrate=   0.4kbits/s speed=0.0143x elapsed=0:00:56.95    \nframe=   51 fps=0.9 q=36.6 size=       0KiB time=00:00:00.81 bitrate=   0.4kbits/s speed=0.0142x elapsed=0:00:57.49    \nframe=   51 fps=0.9 q=36.6 size=       0KiB time=00:00:00.81 bitrate=   0.4kbits/s speed=0.0141x elapsed=0:00:58.02    \nframe=   51 fps=0.9 q=36.6 size=       0KiB time=00:00:00.81 bitrate=   0.4kbits/s speed=0.0139x elapsed=0:00:58.58    \nframe=   51 fps=0.9 q=36.6 size=       0KiB time=00:00:00.81 bitrate=   0.4kbits/s speed=0.0138x elapsed=0:00:59.11    \nframe=   52 fps=0.9 q=37.0 size=       0KiB time=00:00:00.83 bitrate=   0.4kbits/s speed=0.014x elapsed=0:00:59.62    \nframe=   53 fps=0.9 q=30.7 size=       0KiB time=00:00:00.85 bitrate=   0.4kbits/s speed=0.0141x elapsed=0:01:00.15    \nframe=   53 fps=0.9 q=30.7 size=       0KiB time=00:00:00.85 bitrate=   0.4kbits/s speed=0.014x elapsed=0:01:00.68    \nframe=   53 fps=0.9 q=30.7 size=       0KiB time=00:00:00.85 bitrate=   0.4kbits/s speed=0.0139x elapsed=0:01:01.20    \nframe=   54 fps=0.9 q=30.8 size=       0KiB time=00:00:00.86 bitrate=   0.4kbits/s speed=0.014x elapsed=0:01:01.71    \nframe=   55 fps=0.9 q=34.7 size=       0KiB time=00:00:00.88 bitrate=   0.4kbits/s speed=0.0142x elapsed=0:01:02.24    \nframe=   55 fps=0.9 q=34.7 size=       0KiB time=00:00:00.88 bitrate=   0.4kbits/s speed=0.0141x elapsed=0:01:02.79    \nframe=   55 fps=0.9 q=34.7 size=       0KiB time=00:00:00.88 bitrate=   0.4kbits/s speed=0.014x elapsed=0:01:03.31    \nframe=   55 fps=0.9 q=34.7 size=       0KiB time=00:00:00.88 bitrate=   0.4kbits/s speed=0.0138x elapsed=0:01:03.88    \nframe=   55 fps=0.9 q=34.7 size=       0KiB time=00:00:00.88 bitrate=   0.4kbits/s speed=0.0137x elapsed=0:01:04.41    \nframe=   55 fps=0.8 q=34.7 size=       0KiB time=00:00:00.88 bitrate=   0.4kbits/s speed=0.0136x elapsed=0:01:04.94    \nframe=   55 fps=0.8 q=34.7 size=       0KiB time=00:00:00.88 bitrate=   0.4kbits/s speed=0.0135x elapsed=0:01:05.47    \nframe=   55 fps=0.8 q=34.7 size=       0KiB time=00:00:00.88 bitrate=   0.4kbits/s speed=0.0134x elapsed=0:01:06.00    \nframe=   55 fps=0.8 q=34.7 size=       0KiB time=00:00:00.88 bitrate=   0.4kbits/s speed=0.0133x elapsed=0:01:06.52    \nframe=   55 fps=0.8 q=34.7 size=       0KiB time=00:00:00.88 bitrate=   0.4kbits/s speed=0.0132x elapsed=0:01:07.04    \nframe=   55 fps=0.8 q=34.7 size=       0KiB time=00:00:00.88 bitrate=   0.4kbits/s speed=0.0131x elapsed=0:01:07.55    \nframe=   55 fps=0.8 q=34.7 size=       0KiB time=00:00:00.88 bitrate=   0.4kbits/s speed=0.013x elapsed=0:01:08.09    \nframe=   56 fps=0.8 q=35.9 size=       0KiB time=00:00:00.90 bitrate=   0.4kbits/s speed=0.0131x elapsed=0:01:08.62    \nframe=   56 fps=0.8 q=35.9 size=       0KiB time=00:00:00.90 bitrate=   0.4kbits/s speed=0.013x elapsed=0:01:09.16    \nframe=   56 fps=0.8 q=35.9 size=       0KiB time=00:00:00.90 bitrate=   0.4kbits/s speed=0.0129x elapsed=0:01:09.72    \nframe=   56 fps=0.8 q=35.9 size=       0KiB time=00:00:00.90 bitrate=   0.4kbits/s speed=0.0128x elapsed=0:01:10.27    \nframe=   56 fps=0.8 q=35.9 size=       0KiB time=00:00:00.90 bitrate=   0.4kbits/s speed=0.0127x elapsed=0:01:10.79    \nframe=   57 fps=0.8 q=35.3 size=       0KiB time=00:00:00.91 bitrate=   0.4kbits/s speed=0.0129x elapsed=0:01:11.32    \nframe=   58 fps=0.8 q=32.0 size=       0KiB time=00:00:00.93 bitrate=   0.4kbits/s speed=0.013x elapsed=0:01:11.85    \nframe=   58 fps=0.8 q=32.0 size=       0KiB time=00:00:00.93 bitrate=   0.4kbits/s speed=0.0129x elapsed=0:01:12.37    \nframe=   58 fps=0.8 q=32.0 size=       0KiB time=00:00:00.93 bitrate=   0.4kbits/s speed=0.0128x elapsed=0:01:12.89    \nframe=   59 fps=0.8 q=35.3 size=       0KiB time=00:00:00.95 bitrate=   0.4kbits/s speed=0.0129x elapsed=0:01:13.42    \nframe=   59 fps=0.8 q=35.3 size=       0KiB time=00:00:00.95 bitrate=   0.4kbits/s speed=0.0128x elapsed=0:01:13.95    \nframe=   60 fps=0.8 q=37.1 size=       0KiB time=00:00:00.96 bitrate=   0.4kbits/s speed=0.013x elapsed=0:01:14.48    \nframe=   60 fps=0.8 q=37.1 size=       0KiB time=00:00:00.96 bitrate=   0.4kbits/s speed=0.0129x elapsed=0:01:15.00    \nframe=   60 fps=0.8 q=37.1 size=       0KiB time=00:00:00.96 bitrate=   0.4kbits/s speed=0.0128x elapsed=0:01:15.54    \nframe=   60 fps=0.8 q=37.1 size=       0KiB time=00:00:00.96 bitrate=   0.4kbits/s speed=0.0127x elapsed=0:01:16.07    \nframe=   60 fps=0.8 q=37.1 size=       0KiB time=00:00:00.96 bitrate=   0.4kbits/s speed=0.0126x elapsed=0:01:16.59    \nframe=   60 fps=0.8 q=37.1 size=       0KiB time=00:00:00.96 bitrate=   0.4kbits/s speed=0.0125x elapsed=0:01:17.11    \nframe=   60 fps=0.8 q=37.1 size=       0KiB time=00:00:00.96 bitrate=   0.4kbits/s speed=0.0125x elapsed=0:01:17.63    \nframe=   60 fps=0.8 q=37.1 size=       0KiB time=00:00:00.96 bitrate=   0.4kbits/s speed=0.0124x elapsed=0:01:18.15    \nframe=   60 fps=0.8 q=37.1 size=       0KiB time=00:00:00.96 bitrate=   0.4kbits/s speed=0.0123x elapsed=0:01:18.70    \nframe=   60 fps=0.8 q=37.1 size=       0KiB time=00:00:00.96 bitrate=   0.4kbits/s speed=0.0122x elapsed=0:01:19.24    \nframe=   60 fps=0.8 q=37.1 size=       0KiB time=00:00:00.96 bitrate=   0.4kbits/s speed=0.0121x elapsed=0:01:19.75    \nframe=   61 fps=0.8 q=37.4 size=       0KiB time=00:00:00.98 bitrate=   0.4kbits/s speed=0.0122x elapsed=0:01:20.32    \nframe=   61 fps=0.8 q=37.4 size=       0KiB time=00:00:00.98 bitrate=   0.4kbits/s speed=0.0122x elapsed=0:01:20.86    \nframe=   61 fps=0.7 q=37.4 size=       0KiB time=00:00:00.98 bitrate=   0.4kbits/s speed=0.0121x elapsed=0:01:21.42    \nframe=   62 fps=0.8 q=38.8 size=       0KiB time=00:00:01.00 bitrate=   0.4kbits/s speed=0.0122x elapsed=0:01:21.96    \nframe=   62 fps=0.8 q=38.8 size=       0KiB time=00:00:01.00 bitrate=   0.4kbits/s speed=0.0121x elapsed=0:01:22.50    \nframe=   62 fps=0.7 q=38.8 size=       0KiB time=00:00:01.00 bitrate=   0.4kbits/s speed=0.012x elapsed=0:01:23.04    \nframe=   62 fps=0.7 q=38.8 size=       0KiB time=00:00:01.00 bitrate=   0.4kbits/s speed=0.012x elapsed=0:01:23.55    \nframe=   63 fps=0.7 q=30.8 size=       0KiB time=00:00:01.01 bitrate=   0.3kbits/s speed=0.0121x elapsed=0:01:24.08    \nframe=   64 fps=0.8 q=34.1 size=       0KiB time=00:00:01.03 bitrate=   0.3kbits/s speed=0.0122x elapsed=0:01:24.60    \nframe=   65 fps=0.8 q=38.0 size=       0KiB time=00:00:01.05 bitrate=   0.3kbits/s speed=0.0123x elapsed=0:01:25.12    \nframe=   66 fps=0.8 q=38.8 size=       0KiB time=00:00:01.06 bitrate=   0.3kbits/s speed=0.0125x elapsed=0:01:25.64    \nframe=   66 fps=0.8 q=38.8 size=       0KiB time=00:00:01.06 bitrate=   0.3kbits/s speed=0.0124x elapsed=0:01:26.15    \nframe=   66 fps=0.8 q=38.8 size=       0KiB time=00:00:01.06 bitrate=   0.3kbits/s speed=0.0123x elapsed=0:01:26.67    \nframe=   66 fps=0.8 q=38.8 size=       0KiB time=00:00:01.06 bitrate=   0.3kbits/s speed=0.0122x elapsed=0:01:27.19    \nframe=   67 fps=0.8 q=33.1 size=       0KiB time=00:00:01.08 bitrate=   0.3kbits/s speed=0.0124x elapsed=0:01:27.70    \nframe=   68 fps=0.8 q=38.9 size=       0KiB time=00:00:01.10 bitrate=   0.3kbits/s speed=0.0125x elapsed=0:01:28.22    \nframe=   69 fps=0.8 q=31.3 size=       0KiB time=00:00:01.11 bitrate=   0.3kbits/s speed=0.0126x elapsed=0:01:28.73    \nframe=   70 fps=0.8 q=34.6 size=     256KiB time=00:00:01.13 bitrate=1850.7kbits/s speed=0.0127x elapsed=0:01:29.26    \nframe=   70 fps=0.8 q=34.6 size=     256KiB time=00:00:01.13 bitrate=1850.7kbits/s speed=0.0126x elapsed=0:01:29.76    \nframe=   71 fps=0.8 q=38.4 size=     256KiB time=00:00:01.15 bitrate=1823.9kbits/s speed=0.0127x elapsed=0:01:30.28    \nframe=   72 fps=0.8 q=38.8 size=     256KiB time=00:00:01.16 bitrate=1797.9kbits/s speed=0.0128x elapsed=0:01:30.79    \nframe=   72 fps=0.8 q=38.8 size=     256KiB time=00:00:01.16 bitrate=1797.9kbits/s speed=0.0128x elapsed=0:01:31.31    \nframe=   72 fps=0.8 q=38.8 size=     256KiB time=00:00:01.16 bitrate=1797.9kbits/s speed=0.0127x elapsed=0:01:31.83    \nframe=   72 fps=0.8 q=38.8 size=     256KiB time=00:00:01.16 bitrate=1797.9kbits/s speed=0.0126x elapsed=0:01:32.33    \nframe=   72 fps=0.8 q=38.8 size=     256KiB time=00:00:01.16 bitrate=1797.9kbits/s speed=0.0126x elapsed=0:01:32.85    \nframe=   73 fps=0.8 q=30.4 size=     256KiB time=00:00:01.18 bitrate=1772.5kbits/s speed=0.0127x elapsed=0:01:33.37    \nframe=   74 fps=0.8 q=38.8 size=     256KiB time=00:00:01.20 bitrate=1747.9kbits/s speed=0.0128x elapsed=0:01:33.89    \nframe=   76 fps=0.8 q=39.8 size=     256KiB time=00:00:01.23 bitrate=1700.7kbits/s speed=0.0131x elapsed=0:01:34.42    \nframe=   77 fps=0.8 q=39.8 size=     256KiB time=00:00:01.25 bitrate=1678.0kbits/s speed=0.0132x elapsed=0:01:34.93    \nframe=   77 fps=0.8 q=39.8 size=     256KiB time=00:00:01.25 bitrate=1678.0kbits/s speed=0.0131x elapsed=0:01:35.45    \nframe=   77 fps=0.8 q=39.8 size=     256KiB time=00:00:01.25 bitrate=1678.0kbits/s speed=0.013x elapsed=0:01:35.97    \nframe=   77 fps=0.8 q=39.8 size=     256KiB time=00:00:01.25 bitrate=1678.0kbits/s speed=0.013x elapsed=0:01:36.48    \nframe=   78 fps=0.8 q=42.8 size=     256KiB time=00:00:01.26 bitrate=1655.9kbits/s speed=0.0131x elapsed=0:01:37.00    \nframe=   80 fps=0.8 q=36.1 size=     256KiB time=00:00:01.30 bitrate=1613.5kbits/s speed=0.0133x elapsed=0:01:37.52    \nframe=   81 fps=0.8 q=43.0 size=     256KiB time=00:00:01.31 bitrate=1593.0kbits/s speed=0.0134x elapsed=0:01:38.02    \nframe=   83 fps=0.8 q=44.0 size=     256KiB time=00:00:01.35 bitrate=1553.7kbits/s speed=0.0137x elapsed=0:01:38.55    \nframe=   83 fps=0.8 q=44.0 size=     256KiB time=00:00:01.35 bitrate=1553.7kbits/s speed=0.0136x elapsed=0:01:39.05    \nframe=   83 fps=0.8 q=44.0 size=     256KiB time=00:00:01.35 bitrate=1553.7kbits/s speed=0.0136x elapsed=0:01:39.57    \nframe=   83 fps=0.8 q=44.0 size=     256KiB time=00:00:01.35 bitrate=1553.7kbits/s speed=0.0135x elapsed=0:01:40.09    \nframe=   83 fps=0.8 q=44.0 size=     256KiB time=00:00:01.35 bitrate=1553.7kbits/s speed=0.0134x elapsed=0:01:40.61    \nframe=   84 fps=0.8 q=39.0 size=     256KiB time=00:00:01.36 bitrate=1534.8kbits/s speed=0.0135x elapsed=0:01:41.12    \nframe=   86 fps=0.8 q=37.0 size=     256KiB time=00:00:01.40 bitrate=1498.2kbits/s speed=0.0138x elapsed=0:01:41.63    \nframe=   87 fps=0.9 q=43.8 size=     256KiB time=00:00:01.41 bitrate=1480.6kbits/s speed=0.0139x elapsed=0:01:42.15    \nframe=   87 fps=0.8 q=43.8 size=     256KiB time=00:00:01.41 bitrate=1480.6kbits/s speed=0.0138x elapsed=0:01:42.67    \nframe=   89 fps=0.9 q=45.0 size=     256KiB time=00:00:01.45 bitrate=1446.6kbits/s speed=0.0141x elapsed=0:01:43.19    \nframe=   90 fps=0.9 q=33.3 size=     256KiB time=00:00:01.46 bitrate=1430.1kbits/s speed=0.0141x elapsed=0:01:43.69    \nframe=   90 fps=0.9 q=33.3 size=     256KiB time=00:00:01.46 bitrate=1430.1kbits/s speed=0.0141x elapsed=0:01:44.21    \nframe=   90 fps=0.9 q=33.3 size=     256KiB time=00:00:01.46 bitrate=1430.1kbits/s speed=0.014x elapsed=0:01:44.73    \nframe=   90 fps=0.9 q=33.3 size=     256KiB time=00:00:01.46 bitrate=1430.1kbits/s speed=0.0139x elapsed=0:01:45.26    \nframe=   91 fps=0.9 q=40.9 size=     256KiB time=00:00:01.48 bitrate=1414.0kbits/s speed=0.014x elapsed=0:01:45.78    \nframe=   92 fps=0.9 q=42.0 size=     256KiB time=00:00:01.50 bitrate=1398.3kbits/s speed=0.0141x elapsed=0:01:46.30    \nframe=   93 fps=0.9 q=33.2 size=     256KiB time=00:00:01.51 bitrate=1383.0kbits/s speed=0.0142x elapsed=0:01:46.82    \nframe=   94 fps=0.9 q=40.9 size=     256KiB time=00:00:01.53 bitrate=1367.9kbits/s speed=0.0143x elapsed=0:01:47.32    \nframe=   96 fps=0.9 q=42.0 size=     256KiB time=00:00:01.56 bitrate=1338.8kbits/s speed=0.0145x elapsed=0:01:47.85    \nframe=   96 fps=0.9 q=42.0 size=     256KiB time=00:00:01.56 bitrate=1338.8kbits/s speed=0.0145x elapsed=0:01:48.36    \nframe=   96 fps=0.9 q=42.0 size=     256KiB time=00:00:01.56 bitrate=1338.8kbits/s speed=0.0144x elapsed=0:01:48.87    \nframe=   96 fps=0.9 q=42.0 size=     256KiB time=00:00:01.56 bitrate=1338.8kbits/s speed=0.0143x elapsed=0:01:49.40    \nframe=   96 fps=0.9 q=42.0 size=     256KiB time=00:00:01.56 bitrate=1338.8kbits/s speed=0.0143x elapsed=0:01:49.92    \nframe=   97 fps=0.9 q=36.1 size=     256KiB time=00:00:01.58 bitrate=1324.7kbits/s speed=0.0143x elapsed=0:01:50.44    \nframe=   99 fps=0.9 q=35.4 size=     256KiB time=00:00:01.61 bitrate=1297.4kbits/s speed=0.0146x elapsed=0:01:50.96    \nframe=  100 fps=0.9 q=38.2 size=     256KiB time=00:00:01.63 bitrate=1284.2kbits/s speed=0.0147x elapsed=0:01:51.46    \nframe=  100 fps=0.9 q=38.2 size=     256KiB time=00:00:01.63 bitrate=1284.2kbits/s speed=0.0146x elapsed=0:01:51.99    \nframe=  100 fps=0.9 q=38.2 size=     256KiB time=00:00:01.63 bitrate=1284.2kbits/s speed=0.0145x elapsed=0:01:52.49    \nframe=  100 fps=0.9 q=38.2 size=     256KiB time=00:00:01.63 bitrate=1284.2kbits/s speed=0.0145x elapsed=0:01:53.01    \nframe=  100 fps=0.9 q=38.2 size=     256KiB time=00:00:01.63 bitrate=1284.2kbits/s speed=0.0144x elapsed=0:01:53.53    \nframe=  101 fps=0.9 q=41.9 size=     256KiB time=00:00:01.65 bitrate=1271.2kbits/s speed=0.0145x elapsed=0:01:54.05    \nframe=  101 fps=0.9 q=41.9 size=     256KiB time=00:00:01.65 bitrate=1271.2kbits/s speed=0.0144x elapsed=0:01:54.56    \nframe=  102 fps=0.9 q=42.0 size=     256KiB time=00:00:01.66 bitrate=1258.5kbits/s speed=0.0145x elapsed=0:01:55.08    \nframe=  103 fps=0.9 q=34.0 size=     256KiB time=00:00:01.68 bitrate=1246.0kbits/s speed=0.0146x elapsed=0:01:55.60    \nframe=  104 fps=0.9 q=35.2 size=     256KiB time=00:00:01.70 bitrate=1233.8kbits/s speed=0.0146x elapsed=0:01:56.10    \nframe=  105 fps=0.9 q=41.7 size=     256KiB time=00:00:01.71 bitrate=1221.8kbits/s speed=0.0147x elapsed=0:01:56.62    \nframe=  105 fps=0.9 q=41.7 size=     256KiB time=00:00:01.71 bitrate=1221.8kbits/s speed=0.0147x elapsed=0:01:57.14    \nframe=  106 fps=0.9 q=41.4 size=     256KiB time=00:00:01.73 bitrate=1210.1kbits/s speed=0.0147x elapsed=0:01:57.66    \nframe=  107 fps=0.9 q=40.9 size=     256KiB time=00:00:01.75 bitrate=1198.6kbits/s speed=0.0148x elapsed=0:01:58.16    \nframe=  108 fps=0.9 q=34.1 size=     256KiB time=00:00:01.76 bitrate=1187.3kbits/s speed=0.0149x elapsed=0:01:58.68    \nframe=  109 fps=0.9 q=38.5 size=     256KiB time=00:00:01.78 bitrate=1176.2kbits/s speed=0.015x elapsed=0:01:59.20    \nframe=  109 fps=0.9 q=38.5 size=     256KiB time=00:00:01.78 bitrate=1176.2kbits/s speed=0.0149x elapsed=0:01:59.71    \nframe=  109 fps=0.9 q=38.5 size=     256KiB time=00:00:01.78 bitrate=1176.2kbits/s speed=0.0148x elapsed=0:02:00.23    \nframe=  109 fps=0.9 q=38.5 size=     256KiB time=00:00:01.78 bitrate=1176.2kbits/s speed=0.0148x elapsed=0:02:00.75    \nframe=  109 fps=0.9 q=38.5 size=     256KiB time=00:00:01.78 bitrate=1176.2kbits/s speed=0.0147x elapsed=0:02:01.27    \nframe=  110 fps=0.9 q=40.6 size=     256KiB time=00:00:01.80 bitrate=1165.3kbits/s speed=0.0148x elapsed=0:02:01.78    \nframe=  111 fps=0.9 q=40.8 size=     256KiB time=00:00:01.81 bitrate=1154.6kbits/s speed=0.0149x elapsed=0:02:02.30    \nframe=  112 fps=0.9 q=33.9 size=     256KiB time=00:00:01.83 bitrate=1144.1kbits/s speed=0.0149x elapsed=0:02:02.81    \nframe=  113 fps=0.9 q=35.4 size=     256KiB time=00:00:01.85 bitrate=1133.8kbits/s speed=0.015x elapsed=0:02:03.32    \nframe=  114 fps=0.9 q=40.8 size=     256KiB time=00:00:01.86 bitrate=1123.7kbits/s speed=0.0151x elapsed=0:02:03.84    \nframe=  114 fps=0.9 q=40.8 size=     256KiB time=00:00:01.86 bitrate=1123.7kbits/s speed=0.015x elapsed=0:02:04.36    \nframe=  114 fps=0.9 q=40.8 size=     256KiB time=00:00:01.86 bitrate=1123.7kbits/s speed=0.0149x elapsed=0:02:04.87    \nframe=  115 fps=0.9 q=40.3 size=     256KiB time=00:00:01.88 bitrate=1113.7kbits/s speed=0.015x elapsed=0:02:05.39    \nframe=  116 fps=0.9 q=40.9 size=     256KiB time=00:00:01.90 bitrate=1103.9kbits/s speed=0.0151x elapsed=0:02:05.91    \nframe=  118 fps=0.9 q=36.1 size=     256KiB time=00:00:01.93 bitrate=1084.9kbits/s speed=0.0153x elapsed=0:02:06.41    \nframe=  118 fps=0.9 q=36.1 size=     256KiB time=00:00:01.93 bitrate=1084.9kbits/s speed=0.0152x elapsed=0:02:06.93    \nframe=  118 fps=0.9 q=36.1 size=     256KiB time=00:00:01.93 bitrate=1084.9kbits/s speed=0.0152x elapsed=0:02:07.45    \nframe=  120 fps=0.9 q=40.5 size=     256KiB time=00:00:01.96 bitrate=1066.5kbits/s speed=0.0154x elapsed=0:02:07.97    \nframe=  121 fps=0.9 q=33.3 size=     256KiB time=00:00:01.98 bitrate=1057.6kbits/s speed=0.0154x elapsed=0:02:08.49    \nframe=  122 fps=0.9 q=41.0 size=     256KiB time=00:00:02.00 bitrate=1048.8kbits/s speed=0.0155x elapsed=0:02:09.00    \nframe=  123 fps=0.9 q=32.6 size=     256KiB time=00:00:02.01 bitrate=1040.1kbits/s speed=0.0156x elapsed=0:02:09.52    \nframe=  124 fps=1.0 q=36.0 size=     512KiB time=00:00:02.03 bitrate=2062.9kbits/s speed=0.0156x elapsed=0:02:10.02    \nframe=  124 fps=0.9 q=36.0 size=     512KiB time=00:00:02.03 bitrate=2062.9kbits/s speed=0.0156x elapsed=0:02:10.54    \nframe=  126 fps=1.0 q=39.2 size=     512KiB time=00:00:02.06 bitrate=2029.7kbits/s speed=0.0158x elapsed=0:02:11.06    \nframe=  127 fps=1.0 q=32.0 size=     512KiB time=00:00:02.08 bitrate=2013.4kbits/s speed=0.0158x elapsed=0:02:11.58    \nframe=  128 fps=1.0 q=36.6 size=     512KiB time=00:00:02.10 bitrate=1997.5kbits/s speed=0.0159x elapsed=0:02:12.09    \nframe=  129 fps=1.0 q=38.0 size=     512KiB time=00:00:02.11 bitrate=1981.7kbits/s speed=0.016x elapsed=0:02:12.61    \nframe=  129 fps=1.0 q=38.0 size=     512KiB time=00:00:02.11 bitrate=1981.7kbits/s speed=0.0159x elapsed=0:02:13.12    \nframe=  130 fps=1.0 q=35.7 size=     512KiB time=00:00:02.13 bitrate=1966.2kbits/s speed=0.016x elapsed=0:02:13.64    \nframe=  131 fps=1.0 q=36.3 size=     512KiB time=00:00:02.15 bitrate=1951.0kbits/s speed=0.016x elapsed=0:02:14.16    \nframe=  132 fps=1.0 q=31.6 size=     512KiB time=00:00:02.16 bitrate=1936.0kbits/s speed=0.0161x elapsed=0:02:14.66    \nframe=  133 fps=1.0 q=33.6 size=     512KiB time=00:00:02.18 bitrate=1921.2kbits/s speed=0.0162x elapsed=0:02:15.18    \nframe=  133 fps=1.0 q=33.6 size=     512KiB time=00:00:02.18 bitrate=1921.2kbits/s speed=0.0161x elapsed=0:02:15.70    \nframe=  133 fps=1.0 q=33.6 size=     512KiB time=00:00:02.18 bitrate=1921.2kbits/s speed=0.016x elapsed=0:02:16.24    \nframe=  134 fps=1.0 q=35.6 size=     512KiB time=00:00:02.20 bitrate=1906.7kbits/s speed=0.0161x elapsed=0:02:16.81    \nframe=  135 fps=1.0 q=36.3 size=     512KiB time=00:00:02.21 bitrate=1892.3kbits/s speed=0.0161x elapsed=0:02:17.34    \nframe=  135 fps=1.0 q=36.3 size=     512KiB time=00:00:02.21 bitrate=1892.3kbits/s speed=0.0161x elapsed=0:02:17.86    \nframe=  135 fps=1.0 q=36.3 size=     512KiB time=00:00:02.21 bitrate=1892.3kbits/s speed=0.016x elapsed=0:02:18.43    \nframe=  135 fps=1.0 q=36.3 size=     512KiB time=00:00:02.21 bitrate=1892.3kbits/s speed=0.016x elapsed=0:02:18.95    \nframe=  136 fps=1.0 q=31.9 size=     512KiB time=00:00:02.23 bitrate=1878.2kbits/s speed=0.016x elapsed=0:02:19.46    \nframe=  138 fps=1.0 q=34.6 size=     512KiB time=00:00:02.26 bitrate=1850.6kbits/s speed=0.0162x elapsed=0:02:19.98    \nframe=  138 fps=1.0 q=34.6 size=     512KiB time=00:00:02.26 bitrate=1850.6kbits/s speed=0.0161x elapsed=0:02:20.52    \nframe=  138 fps=1.0 q=34.6 size=     512KiB time=00:00:02.26 bitrate=1850.6kbits/s speed=0.0161x elapsed=0:02:21.05    \nframe=  138 fps=1.0 q=34.6 size=     512KiB time=00:00:02.26 bitrate=1850.6kbits/s speed=0.016x elapsed=0:02:21.56    \nframe=  138 fps=1.0 q=34.6 size=     512KiB time=00:00:02.26 bitrate=1850.6kbits/s speed=0.016x elapsed=0:02:22.08    \nframe=  139 fps=1.0 q=34.3 size=     512KiB time=00:00:02.28 bitrate=1837.1kbits/s speed=0.016x elapsed=0:02:22.61    \nframe=  139 fps=1.0 q=34.3 size=     512KiB time=00:00:02.28 bitrate=1837.1kbits/s speed=0.016x elapsed=0:02:23.13    \nframe=  140 fps=1.0 q=35.7 size=     512KiB time=00:00:02.28 bitrate=1837.1kbits/s speed=0.0159x elapsed=0:02:23.63    \nframe=  140 fps=1.0 q=35.7 size=     512KiB time=00:00:02.30 bitrate=1823.8kbits/s speed=0.016x elapsed=0:02:24.18    \nframe=  141 fps=1.0 q=31.6 size=     512KiB time=00:00:02.31 bitrate=1810.6kbits/s speed=0.016x elapsed=0:02:24.74    \nframe=  141 fps=1.0 q=31.6 size=     512KiB time=00:00:02.31 bitrate=1810.6kbits/s speed=0.0159x elapsed=0:02:25.26    \nframe=  142 fps=1.0 q=33.5 size=     512KiB time=00:00:02.33 bitrate=1797.7kbits/s speed=0.016x elapsed=0:02:25.80    \nframe=  142 fps=1.0 q=33.5 size=     512KiB time=00:00:02.33 bitrate=1797.7kbits/s speed=0.0159x elapsed=0:02:26.33    \nframe=  142 fps=1.0 q=33.5 size=     512KiB time=00:00:02.33 bitrate=1797.7kbits/s speed=0.0159x elapsed=0:02:26.86    \nframe=  142 fps=1.0 q=33.5 size=     512KiB time=00:00:02.33 bitrate=1797.7kbits/s speed=0.0158x elapsed=0:02:27.38    \nframe=  142 fps=1.0 q=33.5 size=     512KiB time=00:00:02.33 bitrate=1797.7kbits/s speed=0.0158x elapsed=0:02:27.88    \nframe=  142 fps=1.0 q=33.5 size=     512KiB time=00:00:02.33 bitrate=1797.7kbits/s speed=0.0157x elapsed=0:02:28.41    \nframe=  142 fps=1.0 q=33.5 size=     512KiB time=00:00:02.33 bitrate=1797.7kbits/s speed=0.0157x elapsed=0:02:28.93    \nframe=  142 fps=1.0 q=33.5 size=     512KiB time=00:00:02.33 bitrate=1797.7kbits/s speed=0.0156x elapsed=0:02:29.43    \nframe=  143 fps=1.0 q=36.1 size=     512KiB time=00:00:02.35 bitrate=1785.0kbits/s speed=0.0157x elapsed=0:02:29.95    \nframe=  144 fps=1.0 q=36.2 size=     512KiB time=00:00:02.36 bitrate=1772.4kbits/s speed=0.0157x elapsed=0:02:30.46    \nframe=  145 fps=1.0 q=31.4 size=     512KiB time=00:00:02.38 bitrate=1760.0kbits/s speed=0.0158x elapsed=0:02:30.98    \nframe=  146 fps=1.0 q=32.7 size=     512KiB time=00:00:02.40 bitrate=1747.8kbits/s speed=0.0158x elapsed=0:02:31.50    \nframe=  146 fps=1.0 q=32.7 size=     512KiB time=00:00:02.40 bitrate=1747.8kbits/s speed=0.0158x elapsed=0:02:32.03    \nframe=  146 fps=1.0 q=32.7 size=     512KiB time=00:00:02.40 bitrate=1747.8kbits/s speed=0.0157x elapsed=0:02:32.54    \nframe=  147 fps=1.0 q=35.8 size=     512KiB time=00:00:02.41 bitrate=1735.7kbits/s speed=0.0158x elapsed=0:02:33.06    \nframe=  148 fps=1.0 q=36.6 size=     512KiB time=00:00:02.43 bitrate=1723.8kbits/s speed=0.0158x elapsed=0:02:33.58    \nframe=  148 fps=1.0 q=36.6 size=     512KiB time=00:00:02.43 bitrate=1723.8kbits/s speed=0.0158x elapsed=0:02:34.10    \nframe=  148 fps=1.0 q=36.6 size=     512KiB time=00:00:02.43 bitrate=1723.8kbits/s speed=0.0157x elapsed=0:02:34.62    \nframe=  149 fps=1.0 q=30.5 size=     512KiB time=00:00:02.45 bitrate=1712.1kbits/s speed=0.0158x elapsed=0:02:35.15    \nframe=  149 fps=1.0 q=30.5 size=     512KiB time=00:00:02.45 bitrate=1712.1kbits/s speed=0.0157x elapsed=0:02:35.67    \nframe=  149 fps=1.0 q=30.5 size=     512KiB time=00:00:02.45 bitrate=1712.1kbits/s speed=0.0157x elapsed=0:02:36.19    \nframe=  150 fps=1.0 q=32.5 size=     512KiB time=00:00:02.46 bitrate=1700.5kbits/s speed=0.0157x elapsed=0:02:36.69    \nframe=  150 fps=1.0 q=32.5 size=     512KiB time=00:00:02.46 bitrate=1700.5kbits/s speed=0.0157x elapsed=0:02:37.22    \nframe=  150 fps=1.0 q=32.5 size=     512KiB time=00:00:02.46 bitrate=1700.5kbits/s speed=0.0156x elapsed=0:02:37.75    \nframe=  151 fps=1.0 q=35.4 size=     512KiB time=00:00:02.48 bitrate=1689.1kbits/s speed=0.0157x elapsed=0:02:38.27    \nframe=  151 fps=1.0 q=35.4 size=     512KiB time=00:00:02.48 bitrate=1689.1kbits/s speed=0.0156x elapsed=0:02:38.81    \nframe=  152 fps=1.0 q=30.6 size=     512KiB time=00:00:02.50 bitrate=1677.9kbits/s speed=0.0157x elapsed=0:02:39.34    \nframe=  153 fps=1.0 q=31.9 size=     512KiB time=00:00:02.51 bitrate=1666.8kbits/s speed=0.0157x elapsed=0:02:39.85    \nframe=  153 fps=1.0 q=31.9 size=     512KiB time=00:00:02.51 bitrate=1666.8kbits/s speed=0.0157x elapsed=0:02:40.38    \nframe=  154 fps=1.0 q=35.3 size=     512KiB time=00:00:02.53 bitrate=1655.8kbits/s speed=0.0157x elapsed=0:02:40.98    \nframe=  154 fps=1.0 q=35.3 size=     512KiB time=00:00:02.53 bitrate=1655.8kbits/s speed=0.0157x elapsed=0:02:41.56    \nframe=  154 fps=1.0 q=35.3 size=     512KiB time=00:00:02.53 bitrate=1655.8kbits/s speed=0.0156x elapsed=0:02:42.10    \nframe=  155 fps=1.0 q=35.0 size=     512KiB time=00:00:02.55 bitrate=1645.0kbits/s speed=0.0157x elapsed=0:02:42.63    \nframe=  156 fps=1.0 q=30.7 size=     512KiB time=00:00:02.56 bitrate=1634.3kbits/s speed=0.0157x elapsed=0:02:43.15    \nframe=  156 fps=1.0 q=30.7 size=     512KiB time=00:00:02.56 bitrate=1634.3kbits/s speed=0.0157x elapsed=0:02:43.70    \nframe=  157 fps=1.0 q=31.3 size=     512KiB time=00:00:02.58 bitrate=1623.7kbits/s speed=0.0157x elapsed=0:02:44.29    \nframe=  157 fps=1.0 q=31.3 size=     512KiB time=00:00:02.58 bitrate=1623.7kbits/s speed=0.0157x elapsed=0:02:44.84    \nframe=  157 fps=0.9 q=31.3 size=     512KiB time=00:00:02.58 bitrate=1623.7kbits/s speed=0.0156x elapsed=0:02:45.39    \nframe=  157 fps=0.9 q=31.3 size=     512KiB time=00:00:02.58 bitrate=1623.7kbits/s speed=0.0156x elapsed=0:02:45.94    \nframe=  157 fps=0.9 q=31.3 size=     512KiB time=00:00:02.58 bitrate=1623.7kbits/s speed=0.0155x elapsed=0:02:46.45    \nframe=  158 fps=0.9 q=34.7 size=     512KiB time=00:00:02.60 bitrate=1613.3kbits/s speed=0.0156x elapsed=0:02:46.98    \nframe=  158 fps=0.9 q=34.7 size=     512KiB time=00:00:02.60 bitrate=1613.3kbits/s speed=0.0155x elapsed=0:02:47.53    \nframe=  159 fps=0.9 q=34.9 size=     512KiB time=00:00:02.61 bitrate=1603.1kbits/s speed=0.0156x elapsed=0:02:48.04    \nframe=  159 fps=0.9 q=34.9 size=     512KiB time=00:00:02.61 bitrate=1603.1kbits/s speed=0.0155x elapsed=0:02:48.58    \nframe=  160 fps=0.9 q=30.6 size=     512KiB time=00:00:02.63 bitrate=1592.9kbits/s speed=0.0156x elapsed=0:02:49.11    \nframe=  160 fps=0.9 q=30.6 size=     512KiB time=00:00:02.63 bitrate=1592.9kbits/s speed=0.0155x elapsed=0:02:49.64    \nframe=  160 fps=0.9 q=30.6 size=     512KiB time=00:00:02.63 bitrate=1592.9kbits/s speed=0.0155x elapsed=0:02:50.17    \nframe=  161 fps=0.9 q=31.3 size=     512KiB time=00:00:02.65 bitrate=1582.9kbits/s speed=0.0155x elapsed=0:02:50.68    \nframe=  161 fps=0.9 q=31.3 size=     512KiB time=00:00:02.65 bitrate=1582.9kbits/s speed=0.0155x elapsed=0:02:51.21    \nframe=  161 fps=0.9 q=31.3 size=     512KiB time=00:00:02.65 bitrate=1582.9kbits/s speed=0.0154x elapsed=0:02:51.78    \nframe=  161 fps=0.9 q=31.3 size=     512KiB time=00:00:02.65 bitrate=1582.9kbits/s speed=0.0154x elapsed=0:02:52.31    \nframe=  161 fps=0.9 q=31.3 size=     512KiB time=00:00:02.65 bitrate=1582.9kbits/s speed=0.0153x elapsed=0:02:52.85    \nframe=  161 fps=0.9 q=31.3 size=     512KiB time=00:00:02.65 bitrate=1582.9kbits/s speed=0.0153x elapsed=0:02:53.37    \nframe=  161 fps=0.9 q=31.3 size=     512KiB time=00:00:02.65 bitrate=1582.9kbits/s speed=0.0152x elapsed=0:02:53.89    \nframe=  161 fps=0.9 q=31.3 size=     512KiB time=00:00:02.65 bitrate=1582.9kbits/s speed=0.0152x elapsed=0:02:54.40    \nframe=  163 fps=0.9 q=35.4 size=     512KiB time=00:00:02.68 bitrate=1563.2kbits/s speed=0.0153x elapsed=0:02:54.95    \nframe=  163 fps=0.9 q=35.4 size=     512KiB time=00:00:02.68 bitrate=1563.2kbits/s speed=0.0153x elapsed=0:02:55.52    \nframe=  163 fps=0.9 q=35.4 size=     512KiB time=00:00:02.68 bitrate=1563.2kbits/s speed=0.0152x elapsed=0:02:56.10    \nframe=  163 fps=0.9 q=35.4 size=     512KiB time=00:00:02.68 bitrate=1563.2kbits/s speed=0.0152x elapsed=0:02:56.66    \nframe=  164 fps=0.9 q=29.6 size=     512KiB time=00:00:02.70 bitrate=1553.6kbits/s speed=0.0152x elapsed=0:02:57.18    \nframe=  164 fps=0.9 q=29.6 size=     512KiB time=00:00:02.70 bitrate=1553.6kbits/s speed=0.0152x elapsed=0:02:57.72    \nframe=  164 fps=0.9 q=29.6 size=     512KiB time=00:00:02.70 bitrate=1553.6kbits/s speed=0.0151x elapsed=0:02:58.23    \nframe=  164 fps=0.9 q=29.6 size=     512KiB time=00:00:02.70 bitrate=1553.6kbits/s speed=0.0151x elapsed=0:02:58.75    \nframe=  164 fps=0.9 q=29.6 size=     512KiB time=00:00:02.70 bitrate=1553.6kbits/s speed=0.0151x elapsed=0:02:59.29    \nframe=  165 fps=0.9 q=31.8 size=     512KiB time=00:00:02.70 bitrate=1553.6kbits/s speed=0.015x elapsed=0:02:59.80    \nframe=  165 fps=0.9 q=31.8 size=     512KiB time=00:00:02.71 bitrate=1544.0kbits/s speed=0.0151x elapsed=0:03:00.36    \nframe=  165 fps=0.9 q=31.8 size=     512KiB time=00:00:02.71 bitrate=1544.0kbits/s speed=0.015x elapsed=0:03:00.92    \nframe=  165 fps=0.9 q=31.8 size=     512KiB time=00:00:02.71 bitrate=1544.0kbits/s speed=0.015x elapsed=0:03:01.48    \nframe=  166 fps=0.9 q=33.3 size=     512KiB time=00:00:02.73 bitrate=1534.6kbits/s speed=0.015x elapsed=0:03:02.00    \nframe=  167 fps=0.9 q=28.8 size=     512KiB time=00:00:02.75 bitrate=1525.3kbits/s speed=0.0151x elapsed=0:03:02.54    \nframe=  167 fps=0.9 q=28.8 size=     512KiB time=00:00:02.75 bitrate=1525.3kbits/s speed=0.015x elapsed=0:03:03.06    \nframe=  168 fps=0.9 q=31.8 size=     512KiB time=00:00:02.76 bitrate=1516.1kbits/s speed=0.0151x elapsed=0:03:03.60    \nframe=  168 fps=0.9 q=31.8 size=     512KiB time=00:00:02.76 bitrate=1516.1kbits/s speed=0.015x elapsed=0:03:04.12    \nframe=  168 fps=0.9 q=31.8 size=     512KiB time=00:00:02.76 bitrate=1516.1kbits/s speed=0.015x elapsed=0:03:04.66    \nframe=  168 fps=0.9 q=31.8 size=     512KiB time=00:00:02.76 bitrate=1516.1kbits/s speed=0.0149x elapsed=0:03:05.18    \nframe=  169 fps=0.9 q=34.0 size=     512KiB time=00:00:02.78 bitrate=1507.1kbits/s speed=0.015x elapsed=0:03:05.70    \nframe=  169 fps=0.9 q=34.0 size=     512KiB time=00:00:02.78 bitrate=1507.1kbits/s speed=0.0149x elapsed=0:03:06.23    \nframe=  169 fps=0.9 q=34.0 size=     512KiB time=00:00:02.78 bitrate=1507.1kbits/s speed=0.0149x elapsed=0:03:06.76    \nframe=  169 fps=0.9 q=34.0 size=     512KiB time=00:00:02.78 bitrate=1507.1kbits/s speed=0.0149x elapsed=0:03:07.29    \nframe=  171 fps=0.9 q=27.8 size=     512KiB time=00:00:02.81 bitrate=1489.2kbits/s speed=0.015x elapsed=0:03:07.82    \nframe=  171 fps=0.9 q=27.8 size=     512KiB time=00:00:02.81 bitrate=1489.2kbits/s speed=0.015x elapsed=0:03:08.38    \nframe=  171 fps=0.9 q=27.8 size=     512KiB time=00:00:02.81 bitrate=1489.2kbits/s speed=0.0149x elapsed=0:03:08.91    \nframe=  171 fps=0.9 q=27.8 size=     512KiB time=00:00:02.81 bitrate=1489.2kbits/s speed=0.0149x elapsed=0:03:09.44    \nframe=  171 fps=0.9 q=27.8 size=     512KiB time=00:00:02.81 bitrate=1489.2kbits/s speed=0.0148x elapsed=0:03:09.97    \nframe=  171 fps=0.9 q=27.8 size=     512KiB time=00:00:02.81 bitrate=1489.2kbits/s speed=0.0148x elapsed=0:03:10.52    \nframe=  172 fps=0.9 q=30.1 size=     512KiB time=00:00:02.83 bitrate=1480.5kbits/s speed=0.0148x elapsed=0:03:11.05    \nframe=  172 fps=0.9 q=30.1 size=     512KiB time=00:00:02.83 bitrate=1480.5kbits/s speed=0.0148x elapsed=0:03:11.57    \nframe=  172 fps=0.9 q=30.1 size=     512KiB time=00:00:02.83 bitrate=1480.5kbits/s speed=0.0147x elapsed=0:03:12.11    \nframe=  172 fps=0.9 q=30.1 size=     512KiB time=00:00:02.83 bitrate=1480.5kbits/s speed=0.0147x elapsed=0:03:12.62    \nframe=  172 fps=0.9 q=30.1 size=     512KiB time=00:00:02.83 bitrate=1480.5kbits/s speed=0.0147x elapsed=0:03:13.13    \nframe=  172 fps=0.9 q=30.1 size=     512KiB time=00:00:02.83 bitrate=1480.5kbits/s speed=0.0146x elapsed=0:03:13.65    \nframe=  173 fps=0.9 q=34.6 size=     512KiB time=00:00:02.85 bitrate=1471.8kbits/s speed=0.0147x elapsed=0:03:14.18    \nframe=  174 fps=0.9 q=32.4 size=     512KiB time=00:00:02.86 bitrate=1463.3kbits/s speed=0.0147x elapsed=0:03:14.71    \nframe=  175 fps=0.9 q=27.9 size=     512KiB time=00:00:02.88 bitrate=1454.8kbits/s speed=0.0148x elapsed=0:03:15.24    \nframe=  176 fps=0.9 q=30.1 size=     512KiB time=00:00:02.90 bitrate=1446.4kbits/s speed=0.0148x elapsed=0:03:15.76    \nframe=  176 fps=0.9 q=30.1 size=     512KiB time=00:00:02.90 bitrate=1446.4kbits/s speed=0.0148x elapsed=0:03:16.28    \nframe=  176 fps=0.9 q=30.1 size=     512KiB time=00:00:02.90 bitrate=1446.4kbits/s speed=0.0147x elapsed=0:03:16.79    \nframe=  177 fps=0.9 q=33.2 size=     512KiB time=00:00:02.91 bitrate=1438.2kbits/s speed=0.0148x elapsed=0:03:17.31    \nframe=  178 fps=0.9 q=33.4 size=     512KiB time=00:00:02.93 bitrate=1430.0kbits/s speed=0.0148x elapsed=0:03:17.83    \nframe=  180 fps=0.9 q=30.3 size=     512KiB time=00:00:02.96 bitrate=1413.9kbits/s speed=0.015x elapsed=0:03:18.34    \nframe=  181 fps=0.9 q=32.1 size=     512KiB time=00:00:02.98 bitrate=1406.0kbits/s speed=0.015x elapsed=0:03:18.86    \nframe=  181 fps=0.9 q=32.1 size=     512KiB time=00:00:02.98 bitrate=1406.0kbits/s speed=0.015x elapsed=0:03:19.38    \nframe=  181 fps=0.9 q=32.1 size=     512KiB time=00:00:02.98 bitrate=1406.0kbits/s speed=0.0149x elapsed=0:03:19.88    \nframe=  182 fps=0.9 q=32.2 size=     512KiB time=00:00:03.00 bitrate=1398.2kbits/s speed=0.015x elapsed=0:03:20.40    \nframe=  183 fps=0.9 q=33.4 size=     512KiB time=00:00:03.01 bitrate=1390.5kbits/s speed=0.015x elapsed=0:03:20.92    \nframe=  184 fps=0.9 q=29.7 size=     512KiB time=00:00:03.03 bitrate=1382.9kbits/s speed=0.0151x elapsed=0:03:21.43    \nframe=  185 fps=0.9 q=30.3 size=     512KiB time=00:00:03.05 bitrate=1375.3kbits/s speed=0.0151x elapsed=0:03:21.95    \nframe=  185 fps=0.9 q=30.3 size=     512KiB time=00:00:03.05 bitrate=1375.3kbits/s speed=0.0151x elapsed=0:03:22.47    \nframe=  185 fps=0.9 q=30.3 size=     512KiB time=00:00:03.05 bitrate=1375.3kbits/s speed=0.015x elapsed=0:03:22.98    \nframe=  186 fps=0.9 q=34.8 size=     512KiB time=00:00:03.06 bitrate=1367.8kbits/s speed=0.0151x elapsed=0:03:23.50    \nframe=  186 fps=0.9 q=34.8 size=     512KiB time=00:00:03.06 bitrate=1367.8kbits/s speed=0.015x elapsed=0:03:24.02    \nframe=  187 fps=0.9 q=34.1 size=     512KiB time=00:00:03.08 bitrate=1360.4kbits/s speed=0.0151x elapsed=0:03:24.53    \nframe=  188 fps=0.9 q=30.2 size=     512KiB time=00:00:03.10 bitrate=1353.1kbits/s speed=0.0151x elapsed=0:03:25.05    \nframe=  189 fps=0.9 q=29.6 size=     512KiB time=00:00:03.11 bitrate=1345.9kbits/s speed=0.0152x elapsed=0:03:25.55    \nframe=  190 fps=0.9 q=34.8 size=     512KiB time=00:00:03.13 bitrate=1338.7kbits/s speed=0.0152x elapsed=0:03:26.07    \nframe=  191 fps=0.9 q=33.6 size=     512KiB time=00:00:03.15 bitrate=1331.6kbits/s speed=0.0152x elapsed=0:03:26.60    \nframe=  191 fps=0.9 q=33.6 size=     512KiB time=00:00:03.15 bitrate=1331.6kbits/s speed=0.0152x elapsed=0:03:27.10    \nframe=  192 fps=0.9 q=36.5 size=     512KiB time=00:00:03.16 bitrate=1324.6kbits/s speed=0.0153x elapsed=0:03:27.62    \nframe=  193 fps=0.9 q=30.4 size=     512KiB time=00:00:03.18 bitrate=1317.7kbits/s speed=0.0153x elapsed=0:03:28.14    \nframe=  194 fps=0.9 q=30.5 size=     512KiB time=00:00:03.20 bitrate=1310.8kbits/s speed=0.0153x elapsed=0:03:28.65    \nframe=  195 fps=0.9 q=36.7 size=     512KiB time=00:00:03.21 bitrate=1304.0kbits/s speed=0.0154x elapsed=0:03:29.17    \nframe=  195 fps=0.9 q=36.7 size=     512KiB time=00:00:03.21 bitrate=1304.0kbits/s speed=0.0153x elapsed=0:03:29.69    \nframe=  196 fps=0.9 q=35.6 size=     512KiB time=00:00:03.23 bitrate=1297.3kbits/s speed=0.0154x elapsed=0:03:30.20    \nframe=  197 fps=0.9 q=36.8 size=     512KiB time=00:00:03.25 bitrate=1290.7kbits/s speed=0.0154x elapsed=0:03:30.72    \nframe=  197 fps=0.9 q=36.8 size=     512KiB time=00:00:03.25 bitrate=1290.7kbits/s speed=0.0154x elapsed=0:03:31.24    \nframe=  198 fps=0.9 q=31.1 size=     512KiB time=00:00:03.26 bitrate=1284.1kbits/s speed=0.0154x elapsed=0:03:31.76    \nframe=  200 fps=0.9 q=36.9 size=     768KiB time=00:00:03.30 bitrate=1906.6kbits/s speed=0.0155x elapsed=0:03:32.28    \nframe=  200 fps=0.9 q=36.9 size=     768KiB time=00:00:03.30 bitrate=1906.6kbits/s speed=0.0155x elapsed=0:03:32.80    \nframe=  200 fps=0.9 q=36.9 size=     768KiB time=00:00:03.30 bitrate=1906.6kbits/s speed=0.0155x elapsed=0:03:33.30    \nframe=  201 fps=0.9 q=36.7 size=     768KiB time=00:00:03.31 bitrate=1897.0kbits/s speed=0.0155x elapsed=0:03:33.83    \nframe=  202 fps=0.9 q=36.7 size=     768KiB time=00:00:03.33 bitrate=1887.5kbits/s speed=0.0156x elapsed=0:03:34.35    \nframe=  202 fps=0.9 q=36.7 size=     768KiB time=00:00:03.33 bitrate=1887.5kbits/s speed=0.0155x elapsed=0:03:34.85    \nframe=  204 fps=0.9 q=34.1 size=     768KiB time=00:00:03.36 bitrate=1868.9kbits/s speed=0.0156x elapsed=0:03:35.38    \nframe=  205 fps=0.9 q=36.7 size=     768KiB time=00:00:03.38 bitrate=1859.6kbits/s speed=0.0157x elapsed=0:03:35.89    \nframe=  205 fps=0.9 q=36.7 size=     768KiB time=00:00:03.38 bitrate=1859.6kbits/s speed=0.0156x elapsed=0:03:36.42    \nframe=  205 fps=0.9 q=36.7 size=     768KiB time=00:00:03.38 bitrate=1859.6kbits/s speed=0.0156x elapsed=0:03:36.96    \nframe=  206 fps=0.9 q=36.7 size=     768KiB time=00:00:03.40 bitrate=1850.5kbits/s speed=0.0156x elapsed=0:03:37.49    \nframe=  206 fps=0.9 q=36.7 size=     768KiB time=00:00:03.40 bitrate=1850.5kbits/s speed=0.0156x elapsed=0:03:38.02    \nframe=  206 fps=0.9 q=36.7 size=     768KiB time=00:00:03.40 bitrate=1850.5kbits/s speed=0.0156x elapsed=0:03:38.56    \nframe=  206 fps=0.9 q=36.7 size=     768KiB time=00:00:03.40 bitrate=1850.5kbits/s speed=0.0155x elapsed=0:03:39.08    \nframe=  206 fps=0.9 q=36.7 size=     768KiB time=00:00:03.40 bitrate=1850.5kbits/s speed=0.0155x elapsed=0:03:39.61    \nframe=  206 fps=0.9 q=36.7 size=     768KiB time=00:00:03.40 bitrate=1850.5kbits/s speed=0.0154x elapsed=0:03:40.14    \nframe=  206 fps=0.9 q=36.7 size=     768KiB time=00:00:03.40 bitrate=1850.5kbits/s speed=0.0154x elapsed=0:03:40.66    \nframe=  207 fps=0.9 q=36.9 size=     768KiB time=00:00:03.41 bitrate=1841.5kbits/s speed=0.0154x elapsed=0:03:41.18    \nframe=  207 fps=0.9 q=36.9 size=     768KiB time=00:00:03.41 bitrate=1841.5kbits/s speed=0.0154x elapsed=0:03:41.72    \nframe=  207 fps=0.9 q=36.9 size=     768KiB time=00:00:03.41 bitrate=1841.5kbits/s speed=0.0154x elapsed=0:03:42.25    \nframe=  207 fps=0.9 q=36.9 size=     768KiB time=00:00:03.41 bitrate=1841.5kbits/s speed=0.0153x elapsed=0:03:42.79    \nframe=  208 fps=0.9 q=31.6 size=     768KiB time=00:00:03.43 bitrate=1832.6kbits/s speed=0.0154x elapsed=0:03:43.33    \nframe=  208 fps=0.9 q=31.6 size=     768KiB time=00:00:03.43 bitrate=1832.6kbits/s speed=0.0153x elapsed=0:03:43.85    \nframe=  209 fps=0.9 q=33.3 size=     768KiB time=00:00:03.45 bitrate=1823.7kbits/s speed=0.0154x elapsed=0:03:44.39    \nframe=  209 fps=0.9 q=33.3 size=     768KiB time=00:00:03.45 bitrate=1823.7kbits/s speed=0.0153x elapsed=0:03:44.91    \nframe=  209 fps=0.9 q=33.3 size=     768KiB time=00:00:03.45 bitrate=1823.7kbits/s speed=0.0153x elapsed=0:03:45.43    \nframe=  210 fps=0.9 q=35.6 size=     768KiB time=00:00:03.46 bitrate=1814.9kbits/s speed=0.0153x elapsed=0:03:45.95    \nframe=  210 fps=0.9 q=35.6 size=     768KiB time=00:00:03.46 bitrate=1814.9kbits/s speed=0.0153x elapsed=0:03:46.48    \nframe=  210 fps=0.9 q=35.6 size=     768KiB time=00:00:03.46 bitrate=1814.9kbits/s speed=0.0153x elapsed=0:03:47.02    \nframe=  210 fps=0.9 q=35.6 size=     768KiB time=00:00:03.46 bitrate=1814.9kbits/s speed=0.0152x elapsed=0:03:47.57    \nframe=  210 fps=0.9 q=35.6 size=     768KiB time=00:00:03.46 bitrate=1814.9kbits/s speed=0.0152x elapsed=0:03:48.11    \nframe=  210 fps=0.9 q=35.6 size=     768KiB time=00:00:03.46 bitrate=1814.9kbits/s speed=0.0152x elapsed=0:03:48.63    \nframe=  211 fps=0.9 q=37.4 size=     768KiB time=00:00:03.48 bitrate=1806.3kbits/s speed=0.0152x elapsed=0:03:49.15    \nframe=  211 fps=0.9 q=37.4 size=     768KiB time=00:00:03.48 bitrate=1806.3kbits/s speed=0.0152x elapsed=0:03:49.67    \nframe=  211 fps=0.9 q=37.4 size=     768KiB time=00:00:03.48 bitrate=1806.3kbits/s speed=0.0151x elapsed=0:03:50.19    \nframe=  211 fps=0.9 q=37.4 size=     768KiB time=00:00:03.48 bitrate=1806.3kbits/s speed=0.0151x elapsed=0:03:50.70    \nframe=  211 fps=0.9 q=37.4 size=     768KiB time=00:00:03.48 bitrate=1806.3kbits/s speed=0.0151x elapsed=0:03:51.21    \nframe=  212 fps=0.9 q=31.5 size=     768KiB time=00:00:03.50 bitrate=1797.7kbits/s speed=0.0151x elapsed=0:03:51.74    \nframe=  213 fps=0.9 q=34.6 size=     768KiB time=00:00:03.51 bitrate=1789.1kbits/s speed=0.0151x elapsed=0:03:52.26    \nframe=  213 fps=0.9 q=34.6 size=     768KiB time=00:00:03.51 bitrate=1789.1kbits/s speed=0.0151x elapsed=0:03:52.78    \nframe=  214 fps=0.9 q=37.9 size=     768KiB time=00:00:03.53 bitrate=1780.7kbits/s speed=0.0151x elapsed=0:03:53.29    \nframe=  214 fps=0.9 q=37.9 size=     768KiB time=00:00:03.53 bitrate=1780.7kbits/s speed=0.0151x elapsed=0:03:53.82    \nframe=  214 fps=0.9 q=37.9 size=     768KiB time=00:00:03.53 bitrate=1780.7kbits/s speed=0.0151x elapsed=0:03:54.36    \nframe=  214 fps=0.9 q=37.9 size=     768KiB time=00:00:03.53 bitrate=1780.7kbits/s speed=0.015x elapsed=0:03:54.91    \nframe=  214 fps=0.9 q=37.9 size=     768KiB time=00:00:03.53 bitrate=1780.7kbits/s speed=0.015x elapsed=0:03:55.41    \nframe=  214 fps=0.9 q=37.9 size=     768KiB time=00:00:03.53 bitrate=1780.7kbits/s speed=0.015x elapsed=0:03:56.01    \nframe=  214 fps=0.9 q=37.9 size=     768KiB time=00:00:03.53 bitrate=1780.7kbits/s speed=0.0149x elapsed=0:03:56.56    \nframe=  214 fps=0.9 q=37.9 size=     768KiB time=00:00:03.53 bitrate=1780.7kbits/s speed=0.0149x elapsed=0:03:57.14    \nframe=  214 fps=0.9 q=37.9 size=     768KiB time=00:00:03.53 bitrate=1780.7kbits/s speed=0.0149x elapsed=0:03:57.76    \nframe=  214 fps=0.9 q=37.9 size=     768KiB time=00:00:03.53 bitrate=1780.7kbits/s speed=0.0148x elapsed=0:03:58.29    \nframe=  215 fps=0.9 q=37.8 size=     768KiB time=00:00:03.55 bitrate=1772.3kbits/s speed=0.0149x elapsed=0:03:58.81    \nframe=  215 fps=0.9 q=37.8 size=     768KiB time=00:00:03.55 bitrate=1772.3kbits/s speed=0.0148x elapsed=0:03:59.33    \nframe=  215 fps=0.9 q=37.8 size=     768KiB time=00:00:03.55 bitrate=1772.3kbits/s speed=0.0148x elapsed=0:03:59.86    \nframe=  215 fps=0.9 q=37.8 size=     768KiB time=00:00:03.55 bitrate=1772.3kbits/s speed=0.0148x elapsed=0:04:00.44    \nframe=  215 fps=0.9 q=37.8 size=     768KiB time=00:00:03.55 bitrate=1772.3kbits/s speed=0.0147x elapsed=0:04:01.00    \nframe=  215 fps=0.9 q=37.8 size=     768KiB time=00:00:03.55 bitrate=1772.3kbits/s speed=0.0147x elapsed=0:04:01.59    \nframe=  215 fps=0.9 q=37.8 size=     768KiB time=00:00:03.55 bitrate=1772.3kbits/s speed=0.0147x elapsed=0:04:02.15    \nframe=  216 fps=0.9 q=37.9 size=     768KiB time=00:00:03.56 bitrate=1764.1kbits/s speed=0.0147x elapsed=0:04:02.69    \nframe=  216 fps=0.9 q=37.9 size=     768KiB time=00:00:03.56 bitrate=1764.1kbits/s speed=0.0147x elapsed=0:04:03.24    \nframe=  216 fps=0.9 q=37.9 size=     768KiB time=00:00:03.56 bitrate=1764.1kbits/s speed=0.0146x elapsed=0:04:03.82    \nframe=  216 fps=0.9 q=37.9 size=     768KiB time=00:00:03.56 bitrate=1764.1kbits/s speed=0.0146x elapsed=0:04:04.34    \nframe=  216 fps=0.9 q=37.9 size=     768KiB time=00:00:03.56 bitrate=1764.1kbits/s speed=0.0146x elapsed=0:04:04.87    \nframe=  216 fps=0.9 q=37.9 size=     768KiB time=00:00:03.56 bitrate=1764.1kbits/s speed=0.0145x elapsed=0:04:05.42    \nframe=  216 fps=0.9 q=37.9 size=     768KiB time=00:00:03.56 bitrate=1764.1kbits/s speed=0.0145x elapsed=0:04:06.01    \nframe=  216 fps=0.9 q=37.9 size=     768KiB time=00:00:03.56 bitrate=1764.1kbits/s speed=0.0145x elapsed=0:04:06.57    \nframe=  216 fps=0.9 q=37.9 size=     768KiB time=00:00:03.56 bitrate=1764.1kbits/s speed=0.0144x elapsed=0:04:07.15    \nframe=  216 fps=0.9 q=37.9 size=     768KiB time=00:00:03.56 bitrate=1764.1kbits/s speed=0.0144x elapsed=0:04:07.71    \nframe=  217 fps=0.9 q=31.7 size=     768KiB time=00:00:03.58 bitrate=1755.9kbits/s speed=0.0144x elapsed=0:04:08.28    \nframe=  217 fps=0.9 q=31.7 size=     768KiB time=00:00:03.58 bitrate=1755.9kbits/s speed=0.0144x elapsed=0:04:08.82    \nframe=  217 fps=0.9 q=31.7 size=     768KiB time=00:00:03.58 bitrate=1755.9kbits/s speed=0.0144x elapsed=0:04:09.37    \nframe=  217 fps=0.9 q=31.7 size=     768KiB time=00:00:03.58 bitrate=1755.9kbits/s speed=0.0143x elapsed=0:04:09.94    \nframe=  218 fps=0.9 q=35.2 size=     768KiB time=00:00:03.60 bitrate=1747.7kbits/s speed=0.0144x elapsed=0:04:10.50    \nframe=  218 fps=0.9 q=35.2 size=     768KiB time=00:00:03.60 bitrate=1747.7kbits/s speed=0.0143x elapsed=0:04:11.06    \nframe=  218 fps=0.9 q=35.2 size=     768KiB time=00:00:03.60 bitrate=1747.7kbits/s speed=0.0143x elapsed=0:04:11.58    \nframe=  218 fps=0.9 q=35.2 size=     768KiB time=00:00:03.60 bitrate=1747.7kbits/s speed=0.0143x elapsed=0:04:12.14    \nframe=  218 fps=0.9 q=35.2 size=     768KiB time=00:00:03.60 bitrate=1747.7kbits/s speed=0.0142x elapsed=0:04:12.74    \nframe=  218 fps=0.9 q=35.2 size=     768KiB time=00:00:03.60 bitrate=1747.7kbits/s speed=0.0142x elapsed=0:04:13.30    \nframe=  218 fps=0.9 q=35.2 size=     768KiB time=00:00:03.60 bitrate=1747.7kbits/s speed=0.0142x elapsed=0:04:13.94    \nframe=  218 fps=0.9 q=35.2 size=     768KiB time=00:00:03.60 bitrate=1747.7kbits/s speed=0.0141x elapsed=0:04:14.54    \nframe=  218 fps=0.9 q=35.2 size=     768KiB time=00:00:03.60 bitrate=1747.7kbits/s speed=0.0141x elapsed=0:04:15.07    \nframe=  218 fps=0.9 q=35.2 size=     768KiB time=00:00:03.60 bitrate=1747.7kbits/s speed=0.0141x elapsed=0:04:15.60    \nframe=  218 fps=0.9 q=35.2 size=     768KiB time=00:00:03.60 bitrate=1747.7kbits/s speed=0.0141x elapsed=0:04:16.14    \nframe=  218 fps=0.8 q=35.2 size=     768KiB time=00:00:03.60 bitrate=1747.7kbits/s speed=0.014x elapsed=0:04:16.66    \nframe=  218 fps=0.8 q=35.2 size=     768KiB time=00:00:03.60 bitrate=1747.7kbits/s speed=0.014x elapsed=0:04:17.16    \nframe=  218 fps=0.8 q=35.2 size=     768KiB time=00:00:03.60 bitrate=1747.7kbits/s speed=0.014x elapsed=0:04:17.72    \nframe=  219 fps=0.8 q=39.0 size=     768KiB time=00:00:03.61 bitrate=1739.7kbits/s speed=0.014x elapsed=0:04:18.25    \nframe=  219 fps=0.8 q=39.0 size=     768KiB time=00:00:03.61 bitrate=1739.7kbits/s speed=0.014x elapsed=0:04:18.83    \nframe=  220 fps=0.8 q=38.8 size=     768KiB time=00:00:03.63 bitrate=1731.7kbits/s speed=0.014x elapsed=0:04:19.34    \nframe=  220 fps=0.8 q=38.8 size=     768KiB time=00:00:03.63 bitrate=1731.7kbits/s speed=0.014x elapsed=0:04:19.86    \nframe=  220 fps=0.8 q=38.8 size=     768KiB time=00:00:03.63 bitrate=1731.7kbits/s speed=0.014x elapsed=0:04:20.37    \nframe=  220 fps=0.8 q=38.8 size=     768KiB time=00:00:03.63 bitrate=1731.7kbits/s speed=0.0139x elapsed=0:04:20.90    \nframe=  220 fps=0.8 q=38.8 size=     768KiB time=00:00:03.63 bitrate=1731.7kbits/s speed=0.0139x elapsed=0:04:21.43    \nframe=  221 fps=0.8 q=32.1 size=     768KiB time=00:00:03.65 bitrate=1723.8kbits/s speed=0.0139x elapsed=0:04:21.99    \nframe=  222 fps=0.8 q=35.1 size=     768KiB time=00:00:03.66 bitrate=1715.9kbits/s speed=0.014x elapsed=0:04:22.51    \nframe=  222 fps=0.8 q=35.1 size=     768KiB time=00:00:03.66 bitrate=1715.9kbits/s speed=0.0139x elapsed=0:04:23.04    \nframe=  222 fps=0.8 q=35.1 size=     768KiB time=00:00:03.66 bitrate=1715.9kbits/s speed=0.0139x elapsed=0:04:23.58    \nframe=  222 fps=0.8 q=35.1 size=     768KiB time=00:00:03.66 bitrate=1715.9kbits/s speed=0.0139x elapsed=0:04:24.13    \nframe=  222 fps=0.8 q=35.1 size=     768KiB time=00:00:03.66 bitrate=1715.9kbits/s speed=0.0139x elapsed=0:04:24.65    \nframe=  222 fps=0.8 q=35.1 size=     768KiB time=00:00:03.66 bitrate=1715.9kbits/s speed=0.0138x elapsed=0:04:25.17    \nframe=  222 fps=0.8 q=35.1 size=     768KiB time=00:00:03.66 bitrate=1715.9kbits/s speed=0.0138x elapsed=0:04:25.69    \nframe=  222 fps=0.8 q=35.1 size=     768KiB time=00:00:03.66 bitrate=1715.9kbits/s speed=0.0138x elapsed=0:04:26.20    \nframe=  222 fps=0.8 q=35.1 size=     768KiB time=00:00:03.66 bitrate=1715.9kbits/s speed=0.0137x elapsed=0:04:26.73    \nframe=  222 fps=0.8 q=35.1 size=     768KiB time=00:00:03.66 bitrate=1715.9kbits/s speed=0.0137x elapsed=0:04:27.26    \nframe=  223 fps=0.8 q=38.8 size=     768KiB time=00:00:03.68 bitrate=1708.2kbits/s speed=0.0138x elapsed=0:04:27.80    \nframe=  223 fps=0.8 q=38.8 size=     768KiB time=00:00:03.68 bitrate=1708.2kbits/s speed=0.0137x elapsed=0:04:28.32    \nframe=  223 fps=0.8 q=38.8 size=     768KiB time=00:00:03.68 bitrate=1708.2kbits/s speed=0.0137x elapsed=0:04:28.86    \nframe=  224 fps=0.8 q=38.7 size=     768KiB time=00:00:03.70 bitrate=1700.5kbits/s speed=0.0137x elapsed=0:04:29.38    \nframe=  224 fps=0.8 q=38.7 size=     768KiB time=00:00:03.70 bitrate=1700.5kbits/s speed=0.0137x elapsed=0:04:29.89    \nframe=  224 fps=0.8 q=38.7 size=     768KiB time=00:00:03.70 bitrate=1700.5kbits/s speed=0.0137x elapsed=0:04:30.42    \nframe=  224 fps=0.8 q=38.7 size=     768KiB time=00:00:03.70 bitrate=1700.5kbits/s speed=0.0137x elapsed=0:04:30.98    \nframe=  225 fps=0.8 q=32.2 size=     768KiB time=00:00:03.71 bitrate=1692.9kbits/s speed=0.0137x elapsed=0:04:31.55    \nframe=  227 fps=0.8 q=38.4 size=     768KiB time=00:00:03.75 bitrate=1677.8kbits/s speed=0.0138x elapsed=0:04:32.08    \nframe=  227 fps=0.8 q=38.4 size=     768KiB time=00:00:03.75 bitrate=1677.8kbits/s speed=0.0138x elapsed=0:04:32.62    \nframe=  227 fps=0.8 q=38.4 size=     768KiB time=00:00:03.75 bitrate=1677.8kbits/s speed=0.0137x elapsed=0:04:33.15    \nframe=  228 fps=0.8 q=38.7 size=     768KiB time=00:00:03.76 bitrate=1670.4kbits/s speed=0.0138x elapsed=0:04:33.70    \nframe=  228 fps=0.8 q=38.7 size=     768KiB time=00:00:03.76 bitrate=1670.4kbits/s speed=0.0137x elapsed=0:04:34.23    \nframe=  228 fps=0.8 q=38.7 size=     768KiB time=00:00:03.76 bitrate=1670.4kbits/s speed=0.0137x elapsed=0:04:34.77    \nframe=  228 fps=0.8 q=38.7 size=     768KiB time=00:00:03.76 bitrate=1670.4kbits/s speed=0.0137x elapsed=0:04:35.31    \nframe=  229 fps=0.8 q=38.8 size=     768KiB time=00:00:03.78 bitrate=1663.0kbits/s speed=0.0137x elapsed=0:04:35.86    \nframe=  230 fps=0.8 q=31.7 size=     768KiB time=00:00:03.80 bitrate=1655.7kbits/s speed=0.0137x elapsed=0:04:36.37    \nframe=  231 fps=0.8 q=36.5 size=     768KiB time=00:00:03.81 bitrate=1648.5kbits/s speed=0.0138x elapsed=0:04:36.92    \nframe=  232 fps=0.8 q=37.4 size=     768KiB time=00:00:03.83 bitrate=1641.3kbits/s speed=0.0138x elapsed=0:04:37.43    \nframe=  232 fps=0.8 q=37.4 size=     768KiB time=00:00:03.83 bitrate=1641.3kbits/s speed=0.0138x elapsed=0:04:37.99    \nframe=  232 fps=0.8 q=37.4 size=     768KiB time=00:00:03.83 bitrate=1641.3kbits/s speed=0.0138x elapsed=0:04:38.54    \nframe=  232 fps=0.8 q=37.4 size=     768KiB time=00:00:03.83 bitrate=1641.3kbits/s speed=0.0137x elapsed=0:04:39.08    \nframe=  232 fps=0.8 q=37.4 size=     768KiB time=00:00:03.83 bitrate=1641.3kbits/s speed=0.0137x elapsed=0:04:39.61    \nframe=  233 fps=0.8 q=38.8 size=     768KiB time=00:00:03.85 bitrate=1634.2kbits/s speed=0.0137x elapsed=0:04:40.15    \nframe=  233 fps=0.8 q=38.8 size=     768KiB time=00:00:03.85 bitrate=1634.2kbits/s speed=0.0137x elapsed=0:04:40.68    \nframe=  234 fps=0.8 q=39.0 size=     768KiB time=00:00:03.86 bitrate=1627.2kbits/s speed=0.0138x elapsed=0:04:41.20    \nframe=  234 fps=0.8 q=39.0 size=     768KiB time=00:00:03.86 bitrate=1627.2kbits/s speed=0.0137x elapsed=0:04:41.74    \nframe=  236 fps=0.8 q=35.7 size=     768KiB time=00:00:03.90 bitrate=1613.3kbits/s speed=0.0138x elapsed=0:04:42.28    \nframe=  236 fps=0.8 q=35.7 size=     768KiB time=00:00:03.90 bitrate=1613.3kbits/s speed=0.0138x elapsed=0:04:42.80    \nframe=  236 fps=0.8 q=35.7 size=     768KiB time=00:00:03.90 bitrate=1613.3kbits/s speed=0.0138x elapsed=0:04:43.33    \nframe=  236 fps=0.8 q=35.7 size=     768KiB time=00:00:03.90 bitrate=1613.3kbits/s speed=0.0137x elapsed=0:04:43.87    \nframe=  237 fps=0.8 q=38.7 size=     768KiB time=00:00:03.91 bitrate=1606.4kbits/s speed=0.0138x elapsed=0:04:44.39    \nframe=  237 fps=0.8 q=38.7 size=     768KiB time=00:00:03.91 bitrate=1606.4kbits/s speed=0.0137x elapsed=0:04:44.92    \nframe=  237 fps=0.8 q=38.7 size=     768KiB time=00:00:03.91 bitrate=1606.4kbits/s speed=0.0137x elapsed=0:04:45.44    \nframe=  237 fps=0.8 q=38.7 size=     768KiB time=00:00:03.91 bitrate=1606.4kbits/s speed=0.0137x elapsed=0:04:45.99    \nframe=  237 fps=0.8 q=38.7 size=     768KiB time=00:00:03.91 bitrate=1606.4kbits/s speed=0.0137x elapsed=0:04:46.52    \nframe=  237 fps=0.8 q=38.7 size=     768KiB time=00:00:03.91 bitrate=1606.4kbits/s speed=0.0136x elapsed=0:04:47.04    \nframe=  237 fps=0.8 q=38.7 size=     768KiB time=00:00:03.91 bitrate=1606.4kbits/s speed=0.0136x elapsed=0:04:47.56    \nframe=  237 fps=0.8 q=38.7 size=     768KiB time=00:00:03.91 bitrate=1606.4kbits/s speed=0.0136x elapsed=0:04:48.10    \nframe=  237 fps=0.8 q=38.7 size=     768KiB time=00:00:03.91 bitrate=1606.4kbits/s speed=0.0136x elapsed=0:04:48.65    \nframe=  238 fps=0.8 q=38.5 size=     768KiB time=00:00:03.93 bitrate=1599.6kbits/s speed=0.0136x elapsed=0:04:49.18    \nframe=  238 fps=0.8 q=38.5 size=     768KiB time=00:00:03.93 bitrate=1599.6kbits/s speed=0.0136x elapsed=0:04:49.70    \nframe=  238 fps=0.8 q=38.5 size=     768KiB time=00:00:03.93 bitrate=1599.6kbits/s speed=0.0136x elapsed=0:04:50.22    \nframe=  239 fps=0.8 q=31.6 size=     768KiB time=00:00:03.95 bitrate=1592.9kbits/s speed=0.0136x elapsed=0:04:50.75    \nframe=  239 fps=0.8 q=31.6 size=     768KiB time=00:00:03.95 bitrate=1592.9kbits/s speed=0.0136x elapsed=0:04:51.28    \nframe=  241 fps=0.8 q=37.0 size=     768KiB time=00:00:03.98 bitrate=1579.5kbits/s speed=0.0137x elapsed=0:04:51.81    \nframe=  241 fps=0.8 q=37.0 size=     768KiB time=00:00:03.98 bitrate=1579.5kbits/s speed=0.0136x elapsed=0:04:52.32    \nframe=  242 fps=0.8 q=38.7 size=     768KiB time=00:00:04.00 bitrate=1573.0kbits/s speed=0.0137x elapsed=0:04:52.86    \nframe=  242 fps=0.8 q=38.7 size=     768KiB time=00:00:04.00 bitrate=1573.0kbits/s speed=0.0136x elapsed=0:04:53.40    \nframe=  242 fps=0.8 q=38.7 size=     768KiB time=00:00:04.00 bitrate=1573.0kbits/s speed=0.0136x elapsed=0:04:53.94    \nframe=  243 fps=0.8 q=39.0 size=     768KiB time=00:00:04.01 bitrate=1566.4kbits/s speed=0.0136x elapsed=0:04:54.47    \nframe=  244 fps=0.8 q=31.7 size=     768KiB time=00:00:04.03 bitrate=1560.0kbits/s speed=0.0137x elapsed=0:04:54.99    \nframe=  245 fps=0.8 q=34.9 size=     768KiB time=00:00:04.05 bitrate=1553.5kbits/s speed=0.0137x elapsed=0:04:55.52    \nframe=  246 fps=0.8 q=39.0 size=     768KiB time=00:00:04.06 bitrate=1547.2kbits/s speed=0.0137x elapsed=0:04:56.05    \nframe=  246 fps=0.8 q=39.0 size=     768KiB time=00:00:04.06 bitrate=1547.2kbits/s speed=0.0137x elapsed=0:04:56.57    \nframe=  247 fps=0.8 q=39.0 size=     768KiB time=00:00:04.08 bitrate=1540.9kbits/s speed=0.0137x elapsed=0:04:57.10    \nframe=  247 fps=0.8 q=39.0 size=     768KiB time=00:00:04.08 bitrate=1540.9kbits/s speed=0.0137x elapsed=0:04:57.64    \nframe=  247 fps=0.8 q=39.0 size=     768KiB time=00:00:04.08 bitrate=1540.9kbits/s speed=0.0137x elapsed=0:04:58.21    \nframe=  247 fps=0.8 q=39.0 size=     768KiB time=00:00:04.08 bitrate=1540.9kbits/s speed=0.0137x elapsed=0:04:58.75    \nframe=  247 fps=0.8 q=39.0 size=     768KiB time=00:00:04.08 bitrate=1540.9kbits/s speed=0.0136x elapsed=0:04:59.27    \nframe=  249 fps=0.8 q=35.6 size=     768KiB time=00:00:04.11 bitrate=1528.4kbits/s speed=0.0137x elapsed=0:04:59.79    \nframe=  249 fps=0.8 q=35.6 size=     768KiB time=00:00:04.11 bitrate=1528.4kbits/s speed=0.0137x elapsed=0:05:00.31    \nframe=  249 fps=0.8 q=35.6 size=     768KiB time=00:00:04.11 bitrate=1528.4kbits/s speed=0.0137x elapsed=0:05:00.83    \nframe=  249 fps=0.8 q=35.6 size=     768KiB time=00:00:04.11 bitrate=1528.4kbits/s speed=0.0137x elapsed=0:05:01.40    \nframe=  249 fps=0.8 q=35.6 size=     768KiB time=00:00:04.11 bitrate=1528.4kbits/s speed=0.0136x elapsed=0:05:01.92    \nframe=  250 fps=0.8 q=39.0 size=     768KiB time=00:00:04.13 bitrate=1522.2kbits/s speed=0.0137x elapsed=0:05:02.45    \nframe=  250 fps=0.8 q=39.0 size=     768KiB time=00:00:04.13 bitrate=1522.2kbits/s speed=0.0136x elapsed=0:05:02.98    \nframe=  251 fps=0.8 q=38.0 size=     768KiB time=00:00:04.15 bitrate=1516.1kbits/s speed=0.0137x elapsed=0:05:03.53    \nframe=  252 fps=0.8 q=31.5 size=     768KiB time=00:00:04.16 bitrate=1510.0kbits/s speed=0.0137x elapsed=0:05:04.06    \nframe=  253 fps=0.8 q=35.0 size=     768KiB time=00:00:04.18 bitrate=1504.0kbits/s speed=0.0137x elapsed=0:05:04.58    \nframe=  253 fps=0.8 q=35.0 size=     768KiB time=00:00:04.18 bitrate=1504.0kbits/s speed=0.0137x elapsed=0:05:05.11    \nframe=  253 fps=0.8 q=35.0 size=     768KiB time=00:00:04.18 bitrate=1504.0kbits/s speed=0.0137x elapsed=0:05:05.65    \nframe=  253 fps=0.8 q=35.0 size=     768KiB time=00:00:04.18 bitrate=1504.0kbits/s speed=0.0137x elapsed=0:05:06.18    \nframe=  253 fps=0.8 q=35.0 size=     768KiB time=00:00:04.18 bitrate=1504.0kbits/s speed=0.0136x elapsed=0:05:06.69    \nframe=  253 fps=0.8 q=35.0 size=     768KiB time=00:00:04.18 bitrate=1504.0kbits/s speed=0.0136x elapsed=0:05:07.24    \nframe=  253 fps=0.8 q=35.0 size=     768KiB time=00:00:04.18 bitrate=1504.0kbits/s speed=0.0136x elapsed=0:05:07.78    \nframe=  255 fps=0.8 q=36.8 size=     768KiB time=00:00:04.21 bitrate=1492.1kbits/s speed=0.0137x elapsed=0:05:08.30    \nframe=  256 fps=0.8 q=31.5 size=     768KiB time=00:00:04.23 bitrate=1486.3kbits/s speed=0.0137x elapsed=0:05:08.82    \nframe=  256 fps=0.8 q=31.5 size=     768KiB time=00:00:04.23 bitrate=1486.3kbits/s speed=0.0137x elapsed=0:05:09.38    \nframe=  256 fps=0.8 q=31.5 size=     768KiB time=00:00:04.23 bitrate=1486.3kbits/s speed=0.0137x elapsed=0:05:09.91    \nframe=  256 fps=0.8 q=31.5 size=     768KiB time=00:00:04.23 bitrate=1486.3kbits/s speed=0.0136x elapsed=0:05:10.43    \nframe=  256 fps=0.8 q=31.5 size=     768KiB time=00:00:04.23 bitrate=1486.3kbits/s speed=0.0136x elapsed=0:05:10.96    \nframe=  256 fps=0.8 q=31.5 size=     768KiB time=00:00:04.23 bitrate=1486.3kbits/s speed=0.0136x elapsed=0:05:11.46    \nframe=  256 fps=0.8 q=31.5 size=     768KiB time=00:00:04.23 bitrate=1486.3kbits/s speed=0.0136x elapsed=0:05:11.99    \nframe=  257 fps=0.8 q=34.9 size=     768KiB time=00:00:04.25 bitrate=1480.4kbits/s speed=0.0136x elapsed=0:05:12.51    \nframe=  257 fps=0.8 q=34.9 size=     768KiB time=00:00:04.25 bitrate=1480.4kbits/s speed=0.0136x elapsed=0:05:13.05    \nframe=  259 fps=0.8 q=31.1 size=     768KiB time=00:00:04.28 bitrate=1468.9kbits/s speed=0.0137x elapsed=0:05:13.58    \nframe=  259 fps=0.8 q=31.1 size=     768KiB time=00:00:04.28 bitrate=1468.9kbits/s speed=0.0136x elapsed=0:05:14.10    \nframe=  259 fps=0.8 q=31.1 size=     768KiB time=00:00:04.28 bitrate=1468.9kbits/s speed=0.0136x elapsed=0:05:14.62    \nframe=  259 fps=0.8 q=31.1 size=     768KiB time=00:00:04.28 bitrate=1468.9kbits/s speed=0.0136x elapsed=0:05:15.16    \nframe=  259 fps=0.8 q=31.1 size=     768KiB time=00:00:04.28 bitrate=1468.9kbits/s speed=0.0136x elapsed=0:05:15.68    \nframe=  259 fps=0.8 q=31.1 size=     768KiB time=00:00:04.28 bitrate=1468.9kbits/s speed=0.0135x elapsed=0:05:16.20    \nframe=  259 fps=0.8 q=31.1 size=     768KiB time=00:00:04.28 bitrate=1468.9kbits/s speed=0.0135x elapsed=0:05:16.72    \nframe=  259 fps=0.8 q=31.1 size=     768KiB time=00:00:04.28 bitrate=1468.9kbits/s speed=0.0135x elapsed=0:05:17.25    \nframe=  259 fps=0.8 q=31.1 size=     768KiB time=00:00:04.28 bitrate=1468.9kbits/s speed=0.0135x elapsed=0:05:17.80    \nframe=  260 fps=0.8 q=31.4 size=     768KiB time=00:00:04.30 bitrate=1463.2kbits/s speed=0.0135x elapsed=0:05:18.32    \nframe=  260 fps=0.8 q=31.4 size=     768KiB time=00:00:04.30 bitrate=1463.2kbits/s speed=0.0135x elapsed=0:05:18.84    \nframe=  261 fps=0.8 q=33.7 size=     768KiB time=00:00:04.31 bitrate=1457.6kbits/s speed=0.0135x elapsed=0:05:19.38    \nframe=  261 fps=0.8 q=33.7 size=     768KiB time=00:00:04.31 bitrate=1457.6kbits/s speed=0.0135x elapsed=0:05:19.91    \nframe=  261 fps=0.8 q=33.7 size=     768KiB time=00:00:04.31 bitrate=1457.6kbits/s speed=0.0135x elapsed=0:05:20.43    \nframe=  262 fps=0.8 q=31.4 size=    1024KiB time=00:00:04.33 bitrate=1935.9kbits/s speed=0.0135x elapsed=0:05:20.95    \nframe=  262 fps=0.8 q=31.4 size=    1024KiB time=00:00:04.33 bitrate=1935.9kbits/s speed=0.0135x elapsed=0:05:21.48    \nframe=  262 fps=0.8 q=31.4 size=    1024KiB time=00:00:04.33 bitrate=1935.9kbits/s speed=0.0135x elapsed=0:05:22.02    \nframe=  263 fps=0.8 q=30.0 size=    1024KiB time=00:00:04.35 bitrate=1928.5kbits/s speed=0.0135x elapsed=0:05:22.56    \nframe=  264 fps=0.8 q=34.0 size=    1024KiB time=00:00:04.36 bitrate=1921.1kbits/s speed=0.0135x elapsed=0:05:23.10    \nframe=  264 fps=0.8 q=34.0 size=    1024KiB time=00:00:04.36 bitrate=1921.1kbits/s speed=0.0135x elapsed=0:05:23.66    \nframe=  264 fps=0.8 q=34.0 size=    1024KiB time=00:00:04.36 bitrate=1921.1kbits/s speed=0.0135x elapsed=0:05:24.18    \nframe=  264 fps=0.8 q=34.0 size=    1024KiB time=00:00:04.36 bitrate=1921.1kbits/s speed=0.0134x elapsed=0:05:24.70    \nframe=  265 fps=0.8 q=30.8 size=    1024KiB time=00:00:04.38 bitrate=1913.8kbits/s speed=0.0135x elapsed=0:05:25.22    \nframe=  265 fps=0.8 q=30.8 size=    1024KiB time=00:00:04.38 bitrate=1913.8kbits/s speed=0.0135x elapsed=0:05:25.76    \nframe=  265 fps=0.8 q=30.8 size=    1024KiB time=00:00:04.38 bitrate=1913.8kbits/s speed=0.0134x elapsed=0:05:26.28    \nframe=  265 fps=0.8 q=30.8 size=    1024KiB time=00:00:04.38 bitrate=1913.8kbits/s speed=0.0134x elapsed=0:05:26.80    \nframe=  266 fps=0.8 q=34.5 size=    1024KiB time=00:00:04.40 bitrate=1906.6kbits/s speed=0.0134x elapsed=0:05:27.33    \nframe=  266 fps=0.8 q=34.5 size=    1024KiB time=00:00:04.40 bitrate=1906.6kbits/s speed=0.0134x elapsed=0:05:27.86    \nframe=  268 fps=0.8 q=30.9 size=    1024KiB time=00:00:04.43 bitrate=1892.2kbits/s speed=0.0135x elapsed=0:05:28.38    \nframe=  268 fps=0.8 q=30.9 size=    1024KiB time=00:00:04.43 bitrate=1892.2kbits/s speed=0.0135x elapsed=0:05:28.90    \nframe=  269 fps=0.8 q=33.5 size=    1024KiB time=00:00:04.45 bitrate=1885.2kbits/s speed=0.0135x elapsed=0:05:29.43    \nframe=  269 fps=0.8 q=33.5 size=    1024KiB time=00:00:04.45 bitrate=1885.2kbits/s speed=0.0135x elapsed=0:05:29.98    \nframe=  269 fps=0.8 q=33.5 size=    1024KiB time=00:00:04.45 bitrate=1885.2kbits/s speed=0.0135x elapsed=0:05:30.52    \nframe=  269 fps=0.8 q=33.5 size=    1024KiB time=00:00:04.45 bitrate=1885.2kbits/s speed=0.0134x elapsed=0:05:31.04    \nframe=  269 fps=0.8 q=33.5 size=    1024KiB time=00:00:04.45 bitrate=1885.2kbits/s speed=0.0134x elapsed=0:05:31.57    \nframe=  269 fps=0.8 q=33.5 size=    1024KiB time=00:00:04.45 bitrate=1885.2kbits/s speed=0.0134x elapsed=0:05:32.12    \nframe=  270 fps=0.8 q=35.5 size=    1024KiB time=00:00:04.46 bitrate=1878.1kbits/s speed=0.0134x elapsed=0:05:32.65    \nframe=  270 fps=0.8 q=35.5 size=    1024KiB time=00:00:04.46 bitrate=1878.1kbits/s speed=0.0134x elapsed=0:05:33.19    \nframe=  270 fps=0.8 q=35.5 size=    1024KiB time=00:00:04.46 bitrate=1878.1kbits/s speed=0.0134x elapsed=0:05:33.77    \nframe=  270 fps=0.8 q=35.5 size=    1024KiB time=00:00:04.46 bitrate=1878.1kbits/s speed=0.0134x elapsed=0:05:34.39    \nframe=  270 fps=0.8 q=35.5 size=    1024KiB time=00:00:04.46 bitrate=1878.1kbits/s speed=0.0133x elapsed=0:05:35.01    \nframe=  271 fps=0.8 q=36.8 size=    1024KiB time=00:00:04.48 bitrate=1871.1kbits/s speed=0.0134x elapsed=0:05:35.53    \nframe=  271 fps=0.8 q=36.8 size=    1024KiB time=00:00:04.48 bitrate=1871.1kbits/s speed=0.0133x elapsed=0:05:36.05    \nframe=  271 fps=0.8 q=36.8 size=    1024KiB time=00:00:04.48 bitrate=1871.1kbits/s speed=0.0133x elapsed=0:05:36.58    \nframe=  271 fps=0.8 q=36.8 size=    1024KiB time=00:00:04.48 bitrate=1871.1kbits/s speed=0.0133x elapsed=0:05:37.09    \nframe=  272 fps=0.8 q=31.0 size=    1024KiB time=00:00:04.50 bitrate=1864.2kbits/s speed=0.0133x elapsed=0:05:37.61    \nframe=  272 fps=0.8 q=31.0 size=    1024KiB time=00:00:04.50 bitrate=1864.2kbits/s speed=0.0133x elapsed=0:05:38.21    \nframe=  273 fps=0.8 q=32.5 size=    1024KiB time=00:00:04.51 bitrate=1857.3kbits/s speed=0.0133x elapsed=0:05:38.77    \nframe=  273 fps=0.8 q=32.5 size=    1024KiB time=00:00:04.51 bitrate=1857.3kbits/s speed=0.0133x elapsed=0:05:39.32    \nframe=  273 fps=0.8 q=32.5 size=    1024KiB time=00:00:04.51 bitrate=1857.3kbits/s speed=0.0133x elapsed=0:05:39.86    \nframe=  274 fps=0.8 q=36.0 size=    1024KiB time=00:00:04.53 bitrate=1850.5kbits/s speed=0.0133x elapsed=0:05:40.39    \nframe=  274 fps=0.8 q=36.0 size=    1024KiB time=00:00:04.53 bitrate=1850.5kbits/s speed=0.0133x elapsed=0:05:40.92    \nframe=  275 fps=0.8 q=35.1 size=    1024KiB time=00:00:04.55 bitrate=1843.7kbits/s speed=0.0133x elapsed=0:05:41.46    \nframe=  275 fps=0.8 q=35.1 size=    1024KiB time=00:00:04.55 bitrate=1843.7kbits/s speed=0.0133x elapsed=0:05:41.98    \nframe=  276 fps=0.8 q=30.8 size=    1024KiB time=00:00:04.56 bitrate=1837.0kbits/s speed=0.0133x elapsed=0:05:42.49    \nframe=  277 fps=0.8 q=32.6 size=    1024KiB time=00:00:04.58 bitrate=1830.3kbits/s speed=0.0134x elapsed=0:05:43.02    \nframe=  277 fps=0.8 q=32.6 size=    1024KiB time=00:00:04.58 bitrate=1830.3kbits/s speed=0.0133x elapsed=0:05:43.57    \nframe=  277 fps=0.8 q=32.6 size=    1024KiB time=00:00:04.58 bitrate=1830.3kbits/s speed=0.0133x elapsed=0:05:44.11    \nframe=  277 fps=0.8 q=32.6 size=    1024KiB time=00:00:04.58 bitrate=1830.3kbits/s speed=0.0133x elapsed=0:05:44.65    \nframe=  277 fps=0.8 q=32.6 size=    1024KiB time=00:00:04.58 bitrate=1830.3kbits/s speed=0.0133x elapsed=0:05:45.18    \nframe=  277 fps=0.8 q=32.6 size=    1024KiB time=00:00:04.58 bitrate=1830.3kbits/s speed=0.0133x elapsed=0:05:45.71    \nframe=  277 fps=0.8 q=32.6 size=    1024KiB time=00:00:04.58 bitrate=1830.3kbits/s speed=0.0132x elapsed=0:05:46.24    \nframe=  277 fps=0.8 q=32.6 size=    1024KiB time=00:00:04.58 bitrate=1830.3kbits/s speed=0.0132x elapsed=0:05:46.76    \nframe=  277 fps=0.8 q=32.6 size=    1024KiB time=00:00:04.58 bitrate=1830.3kbits/s speed=0.0132x elapsed=0:05:47.30    \nframe=  277 fps=0.8 q=32.6 size=    1024KiB time=00:00:04.58 bitrate=1830.3kbits/s speed=0.0132x elapsed=0:05:47.84    \nframe=  277 fps=0.8 q=32.6 size=    1024KiB time=00:00:04.58 bitrate=1830.3kbits/s speed=0.0132x elapsed=0:05:48.37    \nframe=  278 fps=0.8 q=35.2 size=    1024KiB time=00:00:04.60 bitrate=1823.7kbits/s speed=0.0132x elapsed=0:05:48.89    \nframe=  278 fps=0.8 q=35.2 size=    1024KiB time=00:00:04.60 bitrate=1823.7kbits/s speed=0.0132x elapsed=0:05:49.43    \nframe=  278 fps=0.8 q=35.2 size=    1024KiB time=00:00:04.60 bitrate=1823.7kbits/s speed=0.0131x elapsed=0:05:49.95    \nframe=  279 fps=0.8 q=33.2 size=    1024KiB time=00:00:04.61 bitrate=1817.1kbits/s speed=0.0132x elapsed=0:05:50.47    \nframe=  279 fps=0.8 q=33.2 size=    1024KiB time=00:00:04.61 bitrate=1817.1kbits/s speed=0.0132x elapsed=0:05:50.99    \nframe=  280 fps=0.8 q=30.7 size=    1024KiB time=00:00:04.63 bitrate=1810.6kbits/s speed=0.0132x elapsed=0:05:51.51    \nframe=  281 fps=0.8 q=31.7 size=    1024KiB time=00:00:04.65 bitrate=1804.1kbits/s speed=0.0132x elapsed=0:05:52.03    \nframe=  281 fps=0.8 q=31.7 size=    1024KiB time=00:00:04.65 bitrate=1804.1kbits/s speed=0.0132x elapsed=0:05:52.55    \nframe=  282 fps=0.8 q=31.3 size=    1024KiB time=00:00:04.66 bitrate=1797.6kbits/s speed=0.0132x elapsed=0:05:53.08    \nframe=  282 fps=0.8 q=31.3 size=    1024KiB time=00:00:04.66 bitrate=1797.6kbits/s speed=0.0132x elapsed=0:05:53.62    \nframe=  282 fps=0.8 q=31.3 size=    1024KiB time=00:00:04.66 bitrate=1797.6kbits/s speed=0.0132x elapsed=0:05:54.16    \nframe=  283 fps=0.8 q=31.3 size=    1024KiB time=00:00:04.68 bitrate=1791.2kbits/s speed=0.0132x elapsed=0:05:54.69    \nframe=  284 fps=0.8 q=31.8 size=    1024KiB time=00:00:04.70 bitrate=1784.9kbits/s speed=0.0132x elapsed=0:05:55.22    \nframe=  284 fps=0.8 q=31.8 size=    1024KiB time=00:00:04.70 bitrate=1784.9kbits/s speed=0.0132x elapsed=0:05:55.73    \nframe=  284 fps=0.8 q=31.8 size=    1024KiB time=00:00:04.70 bitrate=1784.9kbits/s speed=0.0132x elapsed=0:05:56.25    \nframe=  285 fps=0.8 q=30.5 size=    1024KiB time=00:00:04.71 bitrate=1778.6kbits/s speed=0.0132x elapsed=0:05:56.77    \nframe=  285 fps=0.8 q=30.5 size=    1024KiB time=00:00:04.71 bitrate=1778.6kbits/s speed=0.0132x elapsed=0:05:57.28    \nframe=  285 fps=0.8 q=30.5 size=    1024KiB time=00:00:04.71 bitrate=1778.6kbits/s speed=0.0132x elapsed=0:05:57.80    \nframe=  285 fps=0.8 q=30.5 size=    1024KiB time=00:00:04.71 bitrate=1778.6kbits/s speed=0.0132x elapsed=0:05:58.35    \nframe=  286 fps=0.8 q=30.5 size=    1024KiB time=00:00:04.73 bitrate=1772.3kbits/s speed=0.0132x elapsed=0:05:58.86    \nframe=  287 fps=0.8 q=31.8 size=    1024KiB time=00:00:04.75 bitrate=1766.1kbits/s speed=0.0132x elapsed=0:05:59.38    \nframe=  287 fps=0.8 q=31.8 size=    1024KiB time=00:00:04.75 bitrate=1766.1kbits/s speed=0.0132x elapsed=0:05:59.90    \nframe=  288 fps=0.8 q=30.2 size=    1024KiB time=00:00:04.76 bitrate=1759.9kbits/s speed=0.0132x elapsed=0:06:00.42    \nframe=  288 fps=0.8 q=30.2 size=    1024KiB time=00:00:04.76 bitrate=1759.9kbits/s speed=0.0132x elapsed=0:06:00.97    \nframe=  289 fps=0.8 q=29.9 size=    1024KiB time=00:00:04.78 bitrate=1753.8kbits/s speed=0.0132x elapsed=0:06:01.50    \nframe=  289 fps=0.8 q=29.9 size=    1024KiB time=00:00:04.78 bitrate=1753.8kbits/s speed=0.0132x elapsed=0:06:02.02    \nframe=  289 fps=0.8 q=29.9 size=    1024KiB time=00:00:04.78 bitrate=1753.8kbits/s speed=0.0132x elapsed=0:06:02.53    \nframe=  289 fps=0.8 q=29.9 size=    1024KiB time=00:00:04.78 bitrate=1753.8kbits/s speed=0.0132x elapsed=0:06:03.06    \nframe=  290 fps=0.8 q=31.2 size=    1024KiB time=00:00:04.80 bitrate=1747.7kbits/s speed=0.0132x elapsed=0:06:03.60    \nframe=  290 fps=0.8 q=31.2 size=    1024KiB time=00:00:04.80 bitrate=1747.7kbits/s speed=0.0132x elapsed=0:06:04.12    \nframe=  291 fps=0.8 q=31.7 size=    1024KiB time=00:00:04.81 bitrate=1741.7kbits/s speed=0.0132x elapsed=0:06:04.64    \nframe=  292 fps=0.8 q=30.0 size=    1024KiB time=00:00:04.83 bitrate=1735.6kbits/s speed=0.0132x elapsed=0:06:05.18    \nframe=  292 fps=0.8 q=30.0 size=    1024KiB time=00:00:04.83 bitrate=1735.6kbits/s speed=0.0132x elapsed=0:06:05.70    \nframe=  292 fps=0.8 q=30.0 size=    1024KiB time=00:00:04.83 bitrate=1735.6kbits/s speed=0.0132x elapsed=0:06:06.22    \nframe=  292 fps=0.8 q=30.0 size=    1024KiB time=00:00:04.83 bitrate=1735.6kbits/s speed=0.0132x elapsed=0:06:06.76    \nframe=  292 fps=0.8 q=30.0 size=    1024KiB time=00:00:04.83 bitrate=1735.6kbits/s speed=0.0132x elapsed=0:06:07.29    \nframe=  292 fps=0.8 q=30.0 size=    1024KiB time=00:00:04.83 bitrate=1735.6kbits/s speed=0.0131x elapsed=0:06:07.83    \nframe=  292 fps=0.8 q=30.0 size=    1024KiB time=00:00:04.83 bitrate=1735.6kbits/s speed=0.0131x elapsed=0:06:08.34    \nframe=  292 fps=0.8 q=30.0 size=    1024KiB time=00:00:04.83 bitrate=1735.6kbits/s speed=0.0131x elapsed=0:06:08.88    \nframe=  292 fps=0.8 q=30.0 size=    1024KiB time=00:00:04.83 bitrate=1735.6kbits/s speed=0.0131x elapsed=0:06:09.40    \nframe=  293 fps=0.8 q=31.1 size=    1024KiB time=00:00:04.85 bitrate=1729.7kbits/s speed=0.0131x elapsed=0:06:09.92    \nframe=  294 fps=0.8 q=32.3 size=    1024KiB time=00:00:04.86 bitrate=1723.8kbits/s speed=0.0131x elapsed=0:06:10.45    \nframe=  294 fps=0.8 q=32.3 size=    1024KiB time=00:00:04.86 bitrate=1723.8kbits/s speed=0.0131x elapsed=0:06:10.96    \nframe=  294 fps=0.8 q=32.3 size=    1024KiB time=00:00:04.86 bitrate=1723.8kbits/s speed=0.0131x elapsed=0:06:11.53    \nframe=  294 fps=0.8 q=32.3 size=    1024KiB time=00:00:04.86 bitrate=1723.8kbits/s speed=0.0131x elapsed=0:06:12.05    \nframe=  294 fps=0.8 q=32.3 size=    1024KiB time=00:00:04.86 bitrate=1723.8kbits/s speed=0.0131x elapsed=0:06:12.57    \nframe=  294 fps=0.8 q=32.3 size=    1024KiB time=00:00:04.86 bitrate=1723.8kbits/s speed=0.013x elapsed=0:06:13.10    \nframe=  295 fps=0.8 q=31.6 size=    1024KiB time=00:00:04.88 bitrate=1717.9kbits/s speed=0.0131x elapsed=0:06:13.60    \nframe=  297 fps=0.8 q=30.2 size=    1024KiB time=00:00:04.91 bitrate=1706.2kbits/s speed=0.0131x elapsed=0:06:14.12    \nframe=  297 fps=0.8 q=30.2 size=    1024KiB time=00:00:04.91 bitrate=1706.2kbits/s speed=0.0131x elapsed=0:06:14.64    \nframe=  297 fps=0.8 q=30.2 size=    1024KiB time=00:00:04.91 bitrate=1706.2kbits/s speed=0.0131x elapsed=0:06:15.15    \nframe=  299 fps=0.8 q=35.0 size=    1024KiB time=00:00:04.95 bitrate=1694.7kbits/s speed=0.0132x elapsed=0:06:15.67    \n[mp4 @ 000001fdb8cf00c0] Starting second pass: moving the moov atom to the beginning of the file\n[out#0/mp4 @ 000001fdb866ab40] video:1149KiB audio:0KiB subtitle:0KiB other streams:0KiB global headers:2KiB muxing overhead: 0.606792%\nframe=  300 fps=0.8 q=33.0 Lsize=    1156KiB time=00:00:04.96 bitrate=1906.3kbits/s speed=0.0132x elapsed=0:06:15.81    \nx265 [info]: frame I:      2, Avg QP:34.58  kb/s: 5981.28 \nx265 [info]: frame P:     76, Avg QP:31.84  kb/s: 5981.10 \nx265 [info]: frame B:    222, Avg QP:36.08  kb/s: 439.39  \nx265 [info]: Weighted P-Frames: Y:18.4% UV:18.4%\n\nencoded 300 frames in 375.60s (0.80 fps), 1880.24 kb/s, Avg QP:35.00\n",
  "seconds": 376.3257784843445,
  "probe_out": {}
}